<svg width="18" height="18" viewBox="0 0 18 18" fill="none" xmlns="http://www.w3.org/2000/svg">
<path fill-rule="evenodd" clip-rule="evenodd" d="M17.8594 15.1226L13.8844 11.0971C14.5312 9.96772 14.8688 8.71179 14.8688 7.4465C14.8688 3.34132 11.5312 0 7.43438 0C3.3375 0 0 3.34132 0 7.4465C0 11.5517 3.3375 14.893 7.43438 14.893C8.74219 14.893 10.0359 14.5322 11.1891 13.8433L15.1453 17.8547C15.2344 17.9438 15.3609 18 15.4875 18C15.6141 18 15.7406 17.9485 15.8297 17.8547L17.8594 15.8021C18.0469 15.61 18.0469 15.3101 17.8594 15.1226ZM7.43426 2.90071C9.93738 2.90071 11.9718 4.93925 11.9718 7.44641C11.9718 9.95357 9.93738 11.9921 7.43426 11.9921C4.93113 11.9921 2.89676 9.95357 2.89676 7.44641C2.89676 4.93925 4.93113 2.90071 7.43426 2.90071Z" fill="#A6AAB5"/>
</svg>
