<svg width="63" height="60" viewBox="0 0 63 60" fill="none" xmlns="http://www.w3.org/2000/svg">
<rect opacity="0.2" width="62.107" height="60" rx="30" fill="#FFD66B"/>
<rect opacity="0.2" x="9.0166" y="9" width="44" height="42" rx="21" fill="#FFD66B"/>
<path d="M43.2164 16.8V38.4H19.8164V30.696C19.8178 30.5698 19.8458 30.4452 19.8985 30.3305C19.9513 30.2157 20.0275 30.1134 20.1224 30.0301L25.5224 24.234C25.6529 24.1194 25.8138 24.0449 25.9857 24.0197C26.1576 23.9945 26.3331 24.0195 26.4911 24.0918C26.6491 24.1642 26.7827 24.2807 26.8759 24.4273C26.9691 24.5739 27.0179 24.7443 27.0164 24.918V30.318L32.7044 24.252C32.8332 24.1326 32.9941 24.0535 33.1673 24.0244C33.3405 23.9953 33.5185 24.0175 33.6792 24.0883C33.84 24.1591 33.9765 24.2754 34.0719 24.4228C34.1674 24.5703 34.2176 24.7424 34.2164 24.918V34.8H39.6164V16.8H43.2164Z" fill="#FFC327"/>
</svg>
