<svg width="63" height="60" viewBox="0 0 63 60" fill="none" xmlns="http://www.w3.org/2000/svg">
<rect opacity="0.1" width="62.107" height="60" rx="30" fill="#605BFF"/>
<rect opacity="0.1" x="7.80615" y="8" width="46" height="44" rx="22" fill="#605BFF"/>
<path d="M39.7643 32.9167C39.7643 32.9167 42.181 35.4484 42.181 37C42.181 37.6189 41.9264 38.2124 41.4732 38.65C41.02 39.0875 40.4053 39.3334 39.7643 39.3334C39.1234 39.3334 38.5087 39.0875 38.0555 38.65C37.6023 38.2124 37.3477 37.6189 37.3477 37C37.3477 35.4484 39.7643 32.9167 39.7643 32.9167ZM22.8477 37V26.5C22.2067 26.5 21.592 26.2542 21.1388 25.8166C20.6856 25.379 20.431 24.7855 20.431 24.1667C20.431 23.5479 20.6856 22.9544 21.1388 22.5168C21.592 22.0792 22.2067 21.8334 22.8477 21.8334V20.6667C22.8477 20.0479 23.1023 19.4544 23.5555 19.0168C24.0087 18.5792 24.6234 18.3334 25.2643 18.3334H27.681C28.3219 18.3334 28.9366 18.5792 29.3898 19.0168C29.843 19.4544 30.0977 20.0479 30.0977 20.6667V21.8334H39.7643C40.4053 21.8334 41.02 22.0792 41.4732 22.5168C41.9264 22.9544 42.181 23.5479 42.181 24.1667V28.8334C42.5015 28.8334 42.8088 28.9563 43.0354 29.1751C43.262 29.3939 43.3893 29.6906 43.3893 30C43.3893 30.3095 43.262 30.6062 43.0354 30.825C42.8088 31.0438 42.5015 31.1667 42.181 31.1667H37.3477C37.0272 31.1667 36.7198 31.0438 36.4932 30.825C36.2666 30.6062 36.1393 30.3095 36.1393 30C36.1393 29.6906 36.2666 29.3939 36.4932 29.1751C36.7198 28.9563 37.0272 28.8334 37.3477 28.8334V26.5H30.0977V37H31.306C31.9469 37 32.5616 37.2459 33.0148 37.6835C33.468 38.121 33.7227 38.7145 33.7227 39.3334V41.6667H19.2227V39.3334C19.2227 38.7145 19.4773 38.121 19.9305 37.6835C20.3837 37.2459 20.9984 37 21.6393 37H22.8477Z" fill="#605BFF"/>
</svg>
