<svg width="63" height="60" viewBox="0 0 63 60" fill="none" xmlns="http://www.w3.org/2000/svg">
<rect opacity="0.1" width="62.107" height="60" rx="30" fill="#5B93FF"/>
<rect opacity="0.1" x="9.21436" y="9" width="43.0949" height="42" rx="21" fill="#5B93FF"/>
<g clip-path="url(#clip0_114_309)">
<path d="M31.5166 39C29.4352 39 27.5111 38.8091 25.7441 38.4272C23.9772 38.0454 22.5809 37.5213 21.5552 36.855C20.5295 36.1886 20.0166 35.4661 20.0166 34.6875C20.0166 33.9688 20.4583 33.2949 21.3418 32.666C22.2253 32.0371 23.4344 31.5243 24.9692 31.1274C26.5041 30.7306 28.2074 30.4948 30.0791 30.4199V28.9375H32.9541V30.4199C34.8258 30.4948 36.5291 30.7306 38.064 31.1274C39.5988 31.5243 40.8079 32.0371 41.6914 32.666C42.5749 33.2949 43.0166 33.9688 43.0166 34.6875C43.0166 35.4661 42.5037 36.1886 41.478 36.855C40.4523 37.5213 39.056 38.0454 37.2891 38.4272C35.5221 38.8091 33.598 39 31.5166 39ZM32.9541 31.835V33.25C32.9541 33.7441 32.8044 34.3468 32.5049 35.0581C32.2054 35.7694 31.876 36.125 31.5166 36.125C31.1572 36.125 30.8278 35.7694 30.5283 35.0581C30.2288 34.3468 30.0791 33.7441 30.0791 33.25V31.835C27.6234 31.9398 25.5719 32.2617 23.9248 32.8008C22.2777 33.3398 21.4541 33.9688 21.4541 34.6875C21.4541 35.2116 21.9033 35.6945 22.8018 36.1362C23.7002 36.578 24.9206 36.9261 26.4629 37.1807C28.0052 37.4352 29.6898 37.5625 31.5166 37.5625C33.3434 37.5625 35.028 37.4352 36.5703 37.1807C38.1126 36.9261 39.333 36.578 40.2314 36.1362C41.1299 35.6945 41.5791 35.2116 41.5791 34.6875C41.5791 33.9688 40.7555 33.3398 39.1084 32.8008C37.4613 32.2617 35.4098 31.9398 32.9541 31.835ZM31.5166 27.5C29.9294 27.5 28.5742 26.9385 27.4512 25.8154C26.3281 24.6924 25.7666 23.3372 25.7666 21.75C25.7666 20.1628 26.3281 18.8076 27.4512 17.6846C28.5742 16.5615 29.9294 16 31.5166 16C33.1038 16 34.459 16.5615 35.582 17.6846C36.7051 18.8076 37.2666 20.1628 37.2666 21.75C37.2666 23.3372 36.7051 24.6924 35.582 25.8154C34.459 26.9385 33.1038 27.5 31.5166 27.5ZM32.0557 17.752C31.846 17.5573 31.5241 17.4487 31.0898 17.4263C30.6556 17.4038 30.1727 17.4862 29.6411 17.6733C29.1095 17.8605 28.6566 18.1413 28.2822 18.5156C27.9079 18.89 27.6271 19.3429 27.4399 19.8745C27.2528 20.4061 27.1704 20.8927 27.1929 21.3345C27.2153 21.7762 27.3314 22.0944 27.541 22.2891C28.0352 22.7982 29.0347 22.2965 30.5396 20.7842C32.0444 19.2718 32.5498 18.2611 32.0557 17.752ZM35.6719 22.6035C35.4922 22.4238 35.2152 22.3976 34.8408 22.5249C34.4665 22.6522 34.1034 22.8955 33.7515 23.2549C33.3996 23.6143 33.16 23.9811 33.0327 24.3555C32.9054 24.7298 32.9279 25.0068 33.1001 25.1865C33.2723 25.3662 33.5493 25.3924 33.9312 25.2651C34.313 25.1379 34.6799 24.8983 35.0317 24.5464C35.3836 24.1945 35.6232 23.8276 35.7505 23.4458C35.8778 23.064 35.8516 22.7832 35.6719 22.6035Z" fill="#0C5FFF"/>
</g>
<defs>
<clipPath id="clip0_114_309">
<rect width="23" height="23" fill="white" transform="translate(20.0166 16)"/>
</clipPath>
</defs>
</svg>
