<svg width="63" height="60" viewBox="0 0 63 60" fill="none" xmlns="http://www.w3.org/2000/svg">
<rect opacity="0.1" width="62.107" height="60" rx="30" fill="#FF8F6B"/>
<rect opacity="0.1" x="7.98145" y="8" width="46" height="44" rx="22" fill="#FF8F6B"/>
<path d="M20.7148 35.36L24.4481 33.2L29.1148 35.9L31.8513 34.3178C31.2781 34.0532 30.748 33.7094 30.2777 33.2972L32.9153 30.752C33.3465 31.1048 33.886 31.328 34.4815 31.3766V33.6032L34.9481 33.8732V31.3766C35.5455 31.3298 36.0831 31.1048 36.5143 30.752L39.1519 33.2972C38.394 33.9776 37.4625 34.4654 36.4396 34.7372L38.4481 35.9L39.7511 35.144C40.7923 34.3956 41.6384 33.4237 42.2223 32.3051C42.8062 31.1866 43.1118 29.9522 43.1148 28.7C43.1148 26.5517 42.2298 24.4915 40.6545 22.9724C39.0792 21.4534 36.9426 20.6 34.7148 20.6C33.5559 20.6019 32.41 20.8363 31.3501 21.2885C30.2902 21.7406 29.3396 22.4005 28.5585 23.2262L25.3815 20.6L18.8481 26H20.7148V35.36ZM39.4823 32.9786L36.8428 30.4352C37.2087 30.0194 37.4401 29.4992 37.4905 28.925H41.2239C41.1701 30.4347 40.5515 31.8746 39.4823 32.9786ZM41.2239 28.475H37.4905C37.4441 27.9189 37.2182 27.3908 36.8447 26.9648L39.4823 24.4214C40.5183 25.4942 41.166 26.909 41.2239 28.475ZM34.9481 22.4234C36.5721 22.4792 38.0393 23.1038 39.1519 24.1028L36.5143 26.648C36.0725 26.2878 35.5248 26.07 34.9481 26.0252V22.4252V22.4234ZM34.4815 22.4234V26.0234C33.8841 26.0702 33.3465 26.2952 32.9153 26.6462L30.2777 24.1028C31.4227 23.0719 32.9159 22.4753 34.4815 22.4234V22.4234ZM29.9473 24.4214L32.5868 26.9648C32.2228 27.3806 31.9895 27.9008 31.9409 28.475H28.2076C28.2655 26.909 28.9132 25.4942 29.9492 24.4214H29.9473ZM31.9391 28.925C31.9876 29.501 32.2209 30.0194 32.5868 30.4352L29.9473 32.9786C28.8783 31.8745 28.2596 30.4346 28.2057 28.925H31.9391V28.925ZM33.7852 35L29.1148 37.7L24.4481 35L19.7815 37.7V40.4L24.4481 37.7L29.1148 40.4L33.7852 37.7L38.4481 40.4L43.1148 37.7V35L38.4481 37.7L33.7852 35Z" fill="#FF8F6B"/>
</svg>
