<svg width="58" height="60" viewBox="0 0 58 60" fill="none" xmlns="http://www.w3.org/2000/svg">
<rect opacity="0.15" y="1.03595" width="58" height="58.0126" rx="28" fill="#A5A5A5"/>
<rect x="38.3213" width="15.5357" height="15.5391" rx="7.76785" fill="#53B9EA"/>
<path d="M28.9998 43.8548C30.5188 43.8548 31.7617 42.6117 31.7617 41.0923H26.2379C26.2379 41.8249 26.5289 42.5276 27.0468 43.0457C27.5648 43.5637 28.2673 43.8548 28.9998 43.8548ZM37.2855 35.5673V28.661C37.2855 24.4206 35.0207 20.8707 31.0712 19.9315V18.9922C31.0712 17.8458 30.146 16.9203 28.9998 16.9203C27.8536 16.9203 26.9283 17.8458 26.9283 18.9922V19.9315C22.965 20.8707 20.7141 24.4067 20.7141 28.661V35.5673L17.9521 38.3298V39.711H40.0474V38.3298L37.2855 35.5673Z" fill="#828282"/>
</svg>
