<svg width="25" height="24" viewBox="0 0 25 24" fill="none" xmlns="http://www.w3.org/2000/svg">
<path d="M20.7646 14.9167C20.7646 14.9167 23.1812 17.4483 23.1812 19C23.1812 19.6188 22.9266 20.2123 22.4734 20.6499C22.0202 21.0875 21.4055 21.3333 20.7646 21.3333C20.1236 21.3333 19.5089 21.0875 19.0557 20.6499C18.6025 20.2123 18.3479 19.6188 18.3479 19C18.3479 17.4483 20.7646 14.9167 20.7646 14.9167ZM3.8479 19V8.50001C3.20696 8.50001 2.59227 8.25418 2.13906 7.81659C1.68585 7.37901 1.43123 6.78552 1.43123 6.16668C1.43123 5.54784 1.68585 4.95435 2.13906 4.51676C2.59227 4.07918 3.20696 3.83334 3.8479 3.83334V2.66668C3.8479 2.04784 4.10251 1.45435 4.55573 1.01676C5.00894 0.579176 5.62363 0.333344 6.26457 0.333344H8.68123C9.32217 0.333344 9.93686 0.579176 10.3901 1.01676C10.8433 1.45435 11.0979 2.04784 11.0979 2.66668V3.83334H20.7646C21.4055 3.83334 22.0202 4.07918 22.4734 4.51676C22.9266 4.95435 23.1812 5.54784 23.1812 6.16668V10.8333C23.5017 10.8333 23.809 10.9563 24.0357 11.1751C24.2623 11.3938 24.3896 11.6906 24.3896 12C24.3896 12.3094 24.2623 12.6062 24.0357 12.825C23.809 13.0438 23.5017 13.1667 23.1812 13.1667H18.3479C18.0274 13.1667 17.7201 13.0438 17.4935 12.825C17.2669 12.6062 17.1396 12.3094 17.1396 12C17.1396 11.6906 17.2669 11.3938 17.4935 11.1751C17.7201 10.9563 18.0274 10.8333 18.3479 10.8333V8.50001H11.0979V19H12.3062C12.9472 19 13.5619 19.2458 14.0151 19.6834C14.4683 20.121 14.7229 20.7145 14.7229 21.3333V23.6667H0.2229V21.3333C0.2229 20.7145 0.477513 20.121 0.930726 19.6834C1.38394 19.2458 1.99863 19 2.63957 19H3.8479Z" fill="#605BFF"/>
</svg>
