<svg width="18" height="22" viewBox="0 0 18 22" fill="none" xmlns="http://www.w3.org/2000/svg">
<path d="M9.33706 21.5979C10.5008 21.5979 11.453 20.6455 11.453 19.4815H7.22111C7.22111 20.0428 7.44404 20.5811 7.84086 20.978C8.23768 21.3749 8.77587 21.5979 9.33706 21.5979ZM15.6849 15.2487V9.95769C15.6849 6.70901 13.9498 3.98944 10.924 3.26986V2.55028C10.924 1.67198 10.2152 0.962982 9.33706 0.962982C8.45894 0.962982 7.7501 1.67198 7.7501 2.55028V3.26986C4.71372 3.98944 2.98923 6.69843 2.98923 9.95769V15.2487L0.873291 17.3651V18.4233H17.8008V17.3651L15.6849 15.2487Z" fill="#828282"/>
</svg>
