<svg width="24" height="23" viewBox="0 0 24 23" fill="none" xmlns="http://www.w3.org/2000/svg">
<path d="M11.5166 23C9.43522 23 7.51107 22.8091 5.74414 22.4272C3.97721 22.0454 2.58089 21.5213 1.55518 20.855C0.52946 20.1886 0.0166016 19.4661 0.0166016 18.6875C0.0166016 17.9688 0.458333 17.2949 1.3418 16.666C2.22526 16.0371 3.43441 15.5243 4.96924 15.1274C6.50407 14.7306 8.20736 14.4948 10.0791 14.4199V12.9375H12.9541V14.4199C14.8258 14.4948 16.5291 14.7306 18.064 15.1274C19.5988 15.5243 20.8079 16.0371 21.6914 16.666C22.5749 17.2949 23.0166 17.9688 23.0166 18.6875C23.0166 19.4661 22.5037 20.1886 21.478 20.855C20.4523 21.5213 19.056 22.0454 17.2891 22.4272C15.5221 22.8091 13.598 23 11.5166 23ZM12.9541 15.835V17.25C12.9541 17.7441 12.8044 18.3468 12.5049 19.0581C12.2054 19.7694 11.876 20.125 11.5166 20.125C11.1572 20.125 10.8278 19.7694 10.5283 19.0581C10.2288 18.3468 10.0791 17.7441 10.0791 17.25V15.835C7.62337 15.9398 5.57194 16.2617 3.9248 16.8008C2.27767 17.3398 1.4541 17.9688 1.4541 18.6875C1.4541 19.2116 1.90332 19.6945 2.80176 20.1362C3.7002 20.578 4.92057 20.9261 6.46289 21.1807C8.00521 21.4352 9.68978 21.5625 11.5166 21.5625C13.3434 21.5625 15.028 21.4352 16.5703 21.1807C18.1126 20.9261 19.333 20.578 20.2314 20.1362C21.1299 19.6945 21.5791 19.2116 21.5791 18.6875C21.5791 17.9688 20.7555 17.3398 19.1084 16.8008C17.4613 16.2617 15.4098 15.9398 12.9541 15.835ZM11.5166 11.5C9.92936 11.5 8.57422 10.9385 7.45117 9.81543C6.32812 8.69238 5.7666 7.33724 5.7666 5.75C5.7666 4.16276 6.32812 2.80762 7.45117 1.68457C8.57422 0.561523 9.92936 0 11.5166 0C13.1038 0 14.459 0.561523 15.582 1.68457C16.7051 2.80762 17.2666 4.16276 17.2666 5.75C17.2666 7.33724 16.7051 8.69238 15.582 9.81543C14.459 10.9385 13.1038 11.5 11.5166 11.5ZM12.0557 1.75195C11.846 1.55729 11.5241 1.44873 11.0898 1.42627C10.6556 1.40381 10.1727 1.48617 9.64111 1.67334C9.10954 1.86051 8.65658 2.14128 8.28223 2.51562C7.90788 2.88997 7.62712 3.34294 7.43994 3.87451C7.25277 4.40609 7.17041 4.89274 7.19287 5.33447C7.21533 5.7762 7.33138 6.0944 7.54102 6.28906C8.03516 6.79818 9.03467 6.29655 10.5396 4.78418C12.0444 3.27181 12.5498 2.26107 12.0557 1.75195ZM15.6719 6.60352C15.4922 6.42383 15.2152 6.39762 14.8408 6.5249C14.4665 6.65218 14.1034 6.89551 13.7515 7.25488C13.3996 7.61426 13.16 7.98112 13.0327 8.35547C12.9054 8.72982 12.9279 9.00684 13.1001 9.18652C13.2723 9.36621 13.5493 9.39242 13.9312 9.26514C14.313 9.13786 14.6799 8.89827 15.0317 8.54639C15.3836 8.1945 15.6232 7.82764 15.7505 7.4458C15.8778 7.06396 15.8516 6.7832 15.6719 6.60352Z" fill="#0C5FFF"/>
</svg>
