<svg width="26" height="27" viewBox="0 0 26 27" fill="none" xmlns="http://www.w3.org/2000/svg">
<path d="M19.6945 11.2571C19.6945 11.6713 20.0302 12.0071 20.4445 12.0071C20.8587 12.0071 21.1945 11.6713 21.1945 11.2571H19.6945ZM12.1204 0.777527C12.1204 0.363313 11.7846 0.0275269 11.3704 0.0275269C10.9562 0.0275269 10.6204 0.363313 10.6204 0.777527H12.1204ZM24.3333 25.6664V26.4164C24.7476 26.4164 25.0833 26.0806 25.0833 25.6664H24.3333ZM24.3333 13.8769H25.0833C25.0833 13.4627 24.7476 13.1269 24.3333 13.1269V13.8769ZM20.4445 13.8769V13.1269C20.0302 13.1269 19.6945 13.4627 19.6945 13.8769H20.4445ZM1 25.6664H0.25C0.25 26.0806 0.585786 26.4164 1 26.4164L1 25.6664ZM1 20.4267L0.508964 19.8597C0.344495 20.0022 0.25 20.2091 0.25 20.4267H1ZM5.53704 16.4968L5.93753 15.8627C5.65802 15.6862 5.29589 15.7135 5.046 15.9299L5.53704 16.4968ZM10.7222 19.7717L10.3217 20.4058C10.5664 20.5603 10.8781 20.5603 11.1227 20.4058L10.7222 19.7717ZM15.9074 16.4968L16.3464 15.8887C16.0981 15.7095 15.7658 15.6992 15.5069 15.8627L15.9074 16.4968ZM23.5833 11.2571C23.5833 11.6713 23.9191 12.0071 24.3333 12.0071C24.7476 12.0071 25.0833 11.6713 25.0833 11.2571H23.5833ZM19.1482 3.39741V2.64741C18.7522 2.64741 18.4245 2.95517 18.3996 3.35032C18.3748 3.74547 18.6614 4.09188 19.0542 4.1415L19.1482 3.39741ZM25.0833 0.777527C25.0833 0.363313 24.7476 0.0275269 24.3333 0.0275269C23.9191 0.0275269 23.5833 0.363313 23.5833 0.777527H25.0833ZM21.1945 11.2571C21.1945 9.35318 19.3562 7.88718 16.5556 7.88718V9.38718C18.9401 9.38718 19.6945 10.5411 19.6945 11.2571H21.1945ZM16.5556 7.88718H15.2593V9.38718H16.5556V7.88718ZM15.2593 7.88718C14.4293 7.88718 13.6318 7.55409 13.0425 6.95861L11.9763 8.0137C12.8456 8.8922 14.0264 9.38718 15.2593 9.38718V7.88718ZM13.0425 6.95861C12.453 6.36287 12.1204 5.55321 12.1204 4.70735H10.6204C10.6204 5.946 11.1072 7.13548 11.9763 8.0137L13.0425 6.95861ZM12.1204 4.70735V0.777527H10.6204V4.70735H12.1204ZM20.4445 26.4164H24.3333V24.9164H20.4445V26.4164ZM25.0833 25.6664V13.8769H23.5833V25.6664H25.0833ZM24.3333 13.1269H20.4445V14.6269H24.3333V13.1269ZM19.6945 13.8769V19.7717H21.1945V13.8769H19.6945ZM19.6945 19.7717V25.6664H21.1945V19.7717H19.6945ZM20.4445 24.9164H1V26.4164H20.4445V24.9164ZM1.75 25.6664V20.4267H0.25V25.6664H1.75ZM1.49104 20.9936L6.02807 17.0637L5.046 15.9299L0.508964 19.8597L1.49104 20.9936ZM5.13654 17.1309L10.3217 20.4058L11.1227 19.1376L5.93753 15.8627L5.13654 17.1309ZM11.1227 20.4058L16.3079 17.1309L15.5069 15.8627L10.3217 19.1376L11.1227 20.4058ZM15.4685 17.105L20.0055 20.3798L20.8834 19.1636L16.3464 15.8887L15.4685 17.105ZM25.0833 11.2571C25.0833 7.14717 23.7168 4.93644 22.1938 3.78214C21.4491 3.21775 20.7036 2.93494 20.142 2.79306C19.8609 2.72204 19.6235 2.68573 19.4517 2.66712C19.3656 2.6578 19.2956 2.65288 19.2442 2.65029C19.2185 2.64899 19.1975 2.64827 19.1814 2.64787C19.1733 2.64768 19.1665 2.64756 19.1609 2.64749C19.1582 2.64746 19.1557 2.64744 19.1536 2.64743C19.1525 2.64742 19.1515 2.64742 19.1506 2.64741C19.1502 2.64741 19.1496 2.64741 19.1493 2.64741C19.1487 2.64741 19.1482 2.64741 19.1482 3.39741C19.1482 4.14741 19.1476 4.14741 19.1471 4.14741C19.147 4.14741 19.1465 4.14741 19.1462 4.14741C19.1456 4.14741 19.1451 4.1474 19.1446 4.1474C19.1437 4.1474 19.1432 4.14739 19.1429 4.14739C19.1423 4.14738 19.1429 4.14738 19.1447 4.14743C19.1482 4.14751 19.1563 4.14775 19.1685 4.14837C19.1931 4.14962 19.2345 4.15237 19.2902 4.1584C19.4019 4.1705 19.5697 4.19559 19.7746 4.24737C20.1853 4.35111 20.7361 4.55952 21.2877 4.97759C22.3573 5.78821 23.5833 7.5073 23.5833 11.2571H25.0833ZM19.1482 3.39741C19.0542 4.1415 19.0544 4.14153 19.0547 4.14156C19.0548 4.14158 19.0551 4.14161 19.0553 4.14164C19.0558 4.1417 19.0563 4.14177 19.0569 4.14184C19.0582 4.142 19.0597 4.14219 19.0616 4.14242C19.0653 4.14287 19.0703 4.14346 19.0765 4.14418C19.0889 4.14562 19.1061 4.14756 19.1279 4.14985C19.1714 4.15442 19.233 4.16042 19.3103 4.1667C19.4645 4.17923 19.6822 4.19293 19.9426 4.19841C20.4587 4.20928 21.1631 4.18833 21.8804 4.05243C22.588 3.91835 23.3755 3.66007 23.9991 3.14811C24.6538 2.61054 25.0833 1.82699 25.0833 0.777527H23.5833C23.5833 1.3655 23.3647 1.72814 23.0472 1.98881C22.6985 2.2751 22.1898 2.46711 21.6011 2.57865C21.0221 2.68836 20.4302 2.70835 19.9741 2.69875C19.7483 2.69399 19.5609 2.68212 19.4317 2.67162C19.3671 2.66638 19.3174 2.66151 19.2849 2.65809C19.2687 2.65638 19.2568 2.65504 19.2495 2.6542C19.2459 2.65378 19.2435 2.65348 19.2422 2.65333C19.2416 2.65325 19.2413 2.65322 19.2413 2.65321C19.2413 2.65321 19.2413 2.65322 19.2415 2.65324C19.2415 2.65325 19.2417 2.65327 19.2418 2.65327C19.2419 2.6533 19.2421 2.65332 19.1482 3.39741Z" fill="#72D1FF"/>
</svg>
