<svg width="28" height="21" viewBox="0 0 28 21" fill="none" xmlns="http://www.w3.org/2000/svg">
<path d="M20.2551 20.6527C19.8313 20.6527 19.4878 20.3032 19.4878 19.872C19.4878 16.8155 17.0441 14.3289 14.0404 14.3289H12.8895C9.88582 14.3289 7.44212 16.8155 7.44212 19.872C7.44212 20.3032 7.09862 20.6527 6.67487 20.6527C6.25113 20.6527 5.90763 20.3032 5.90763 19.872C5.90763 15.9546 9.03971 12.7675 12.8895 12.7675H14.0404C17.8902 12.7675 21.0223 15.9546 21.0223 19.872C21.0223 20.3032 20.6788 20.6527 20.2551 20.6527ZM18.5671 5.9363C18.5671 3.03054 16.2439 0.666504 13.3882 0.666504C10.5326 0.666504 8.20936 3.03054 8.20936 5.9363C8.20936 8.84207 10.5326 11.2061 13.3882 11.2061C16.2439 11.2061 18.5671 8.84207 18.5671 5.9363ZM17.0326 5.9363C17.0326 7.9811 15.3978 9.64468 13.3882 9.64468C11.3787 9.64468 9.74384 7.9811 9.74384 5.9363C9.74384 3.8915 11.3787 2.22793 13.3882 2.22793C15.3978 2.22793 17.0326 3.8915 17.0326 5.9363Z" fill="#72D1FF"/>
<path d="M26.6812 20.8887C26.3824 20.8887 26.1402 20.6423 26.1402 20.3382C26.1402 18.183 24.417 16.4296 22.299 16.4296H21.4875C19.3694 16.4296 17.6463 18.183 17.6463 20.3382C17.6463 20.6423 17.404 20.8887 17.1052 20.8887C16.8064 20.8887 16.5642 20.6423 16.5642 20.3382C16.5642 17.5759 18.7728 15.3286 21.4875 15.3286H22.299C25.0137 15.3286 27.2222 17.5759 27.2222 20.3382C27.2222 20.6423 26.98 20.8887 26.6812 20.8887ZM25.491 10.5116C25.491 8.46258 23.8528 6.7956 21.8391 6.7956C19.8255 6.7956 18.1873 8.46258 18.1873 10.5116C18.1873 12.5605 19.8255 14.2275 21.8391 14.2275C23.8528 14.2275 25.491 12.5605 25.491 10.5116ZM24.409 10.5116C24.409 11.9534 23.2561 13.1265 21.8391 13.1265C20.4221 13.1265 19.2693 11.9534 19.2693 10.5116C19.2693 9.06969 20.4221 7.89663 21.8391 7.89663C23.2561 7.89663 24.409 9.06969 24.409 10.5116Z" fill="#72D1FF"/>
<path d="M10.117 20.6527C9.81819 20.6527 9.57598 20.4062 9.57598 20.1022C9.57598 17.947 7.85282 16.1935 5.73477 16.1935H4.92324C2.80519 16.1935 1.08203 17.947 1.08203 20.1022C1.08203 20.4062 0.839819 20.6527 0.541016 20.6527C0.242213 20.6527 0 20.4062 0 20.1022C0 17.3399 2.20856 15.0925 4.92324 15.0925H5.73477C8.44945 15.0925 10.658 17.3399 10.658 20.1022C10.658 20.4062 10.4158 20.6527 10.117 20.6527ZM8.92676 10.2755C8.92676 8.22655 7.28854 6.55957 5.2749 6.55957C3.26127 6.55957 1.62305 8.22655 1.62305 10.2755C1.62305 12.3245 3.26127 13.9915 5.2749 13.9915C7.28854 13.9915 8.92676 12.3245 8.92676 10.2755ZM7.84473 10.2755C7.84473 11.7174 6.69191 12.8905 5.2749 12.8905C3.8579 12.8905 2.70508 11.7174 2.70508 10.2755C2.70508 8.83366 3.8579 7.6606 5.2749 7.6606C6.69191 7.6606 7.84473 8.83366 7.84473 10.2755Z" fill="#72D1FF"/>
</svg>
