<svg width="8" height="12" viewBox="0 0 8 12" fill="none" xmlns="http://www.w3.org/2000/svg">
<path d="M4.25 5.48438C3.89776 5.48438 3.55995 5.34445 3.31087 5.09538C3.0618 4.84631 2.92187 4.50849 2.92187 4.15625C2.92187 3.80401 3.0618 3.4662 3.31087 3.21712C3.55995 2.96805 3.89776 2.82813 4.25 2.82813C4.60224 2.82813 4.94005 2.96805 5.18913 3.21712C5.4382 3.4662 5.57812 3.80401 5.57812 4.15625C5.57812 4.33066 5.54377 4.50337 5.47703 4.6645C5.41028 4.82564 5.31245 4.97205 5.18913 5.09538C5.0658 5.21871 4.91939 5.31653 4.75825 5.38328C4.59712 5.45002 4.42441 5.48438 4.25 5.48438V5.48438ZM4.25 0.4375C3.26373 0.4375 2.31785 0.829296 1.62045 1.5267C0.923046 2.2241 0.53125 3.16998 0.53125 4.15625C0.53125 6.94531 4.25 11.0625 4.25 11.0625C4.25 11.0625 7.96875 6.94531 7.96875 4.15625C7.96875 3.16998 7.57695 2.2241 6.87955 1.5267C6.18215 0.829296 5.23627 0.4375 4.25 0.4375V0.4375Z" fill="#14C993"/>
</svg>
