<svg width="20" height="20" viewBox="0 0 20 20" fill="none" xmlns="http://www.w3.org/2000/svg">
<path d="M10.5827 0.355817C10.3545 0.127987 10.045 0 9.72223 0C9.39948 0 9.08995 0.127987 8.8617 0.355817L0.341668 8.86277C0.119954 9.09197 -0.00272716 9.39895 4.60114e-05 9.71759C0.00281918 10.0362 0.130825 10.341 0.356494 10.5664C0.582164 10.7917 0.887439 10.9195 1.20657 10.9223C1.5257 10.925 1.83316 10.8025 2.06271 10.5812L2.41934 10.2251V18.2289C2.41934 18.5512 2.54757 18.8603 2.77583 19.0882C3.00409 19.3162 3.31368 19.4442 3.63649 19.4442H6.07078C6.39359 19.4442 6.70318 19.3162 6.93144 19.0882C7.1597 18.8603 7.28793 18.5512 7.28793 18.2289V15.7984C7.28793 15.476 7.41617 15.1669 7.64442 14.939C7.87268 14.7111 8.18227 14.5831 8.50508 14.5831H10.9394C11.2622 14.5831 11.5718 14.7111 11.8 14.939C12.0283 15.1669 12.1565 15.476 12.1565 15.7984V18.2289C12.1565 18.5512 12.2848 18.8603 12.513 19.0882C12.7413 19.3162 13.0509 19.4442 13.3737 19.4442H15.808C16.1308 19.4442 16.4404 19.3162 16.6686 19.0882C16.8969 18.8603 17.0251 18.5512 17.0251 18.2289V10.2251L17.3817 10.5812C17.6113 10.8025 17.9187 10.925 18.2379 10.9223C18.557 10.9195 18.8623 10.7917 19.088 10.5664C19.3136 10.341 19.4416 10.0362 19.4444 9.71759C19.4472 9.39895 19.3245 9.09197 19.1028 8.86277L10.5827 0.355817Z" fill="#72D1FF"/>
</svg>
