<svg width="20" height="20" viewBox="0 0 20 20" fill="none" xmlns="http://www.w3.org/2000/svg">
<path d="M3.125 3.125C3.125 2.39565 3.41473 1.69618 3.93046 1.18046C4.44618 0.664731 5.14565 0.375 5.875 0.375C6.60435 0.375 7.30382 0.664731 7.81954 1.18046C8.33527 1.69618 8.625 2.39565 8.625 3.125C8.625 3.85435 8.33527 4.55382 7.81954 5.06954C7.30382 5.58527 6.60435 5.875 5.875 5.875C5.14565 5.875 4.44618 5.58527 3.93046 5.06954C3.41473 4.55382 3.125 3.85435 3.125 3.125V3.125ZM12.4461 5.303L12.5039 5.347C13.0873 5.77945 13.818 5.96357 14.5367 5.8592C15.2554 5.75483 15.9036 5.37043 16.3399 4.7899C16.7761 4.20936 16.9651 3.47982 16.8655 2.76049C16.7658 2.04115 16.3857 1.39043 15.8081 0.950316C15.2304 0.510207 14.5022 0.316448 13.7822 0.411324C13.0622 0.506199 12.409 0.882007 11.9651 1.45673C11.5212 2.03146 11.3226 2.75844 11.4127 3.47903C11.5029 4.19962 11.8743 4.8553 12.4461 5.303V5.303ZM7.6185 7.25C7.7912 6.92298 8.02809 6.63414 8.315 6.40079C8.60191 6.16743 8.93294 5.99434 9.28828 5.89187C9.64363 5.7894 10.016 5.75966 10.3831 5.80442C10.7502 5.84919 11.1045 5.96754 11.4248 6.1524C11.7451 6.33726 12.0249 6.58483 12.2473 6.88029C12.4697 7.17576 12.6303 7.51305 12.7193 7.87199C12.8084 8.23094 12.8241 8.60416 12.7656 8.96932C12.7071 9.33449 12.5755 9.68411 12.3787 9.99725C12.0002 10.5997 11.403 11.032 10.7124 11.2033C10.0219 11.3746 9.29185 11.2716 8.67564 10.916C8.05943 10.5604 7.60503 9.97977 7.4079 9.29615C7.21077 8.61254 7.28626 7.87913 7.6185 7.25V7.25ZM2.4375 7.25H6.10875C5.9575 7.68037 5.875 8.14375 5.875 8.625C5.875 9.681 6.27237 10.6463 6.9255 11.375H6.5625C5.8536 11.3749 5.16199 11.5939 4.58234 12.002C4.00269 12.4101 3.56332 12.9873 3.32437 13.6547C2.86283 13.4693 2.43069 13.2178 2.0415 12.9081C1.0075 12.0762 0.375 10.847 0.375 9.3125C0.375 8.76549 0.592299 8.24089 0.979092 7.85409C1.36589 7.4673 1.89049 7.25 2.4375 7.25V7.25ZM13.4375 11.375C14.9294 11.375 16.1999 12.3251 16.6743 13.6547C17.1418 13.4636 17.5749 13.2147 17.9585 12.9081C18.9925 12.0762 19.625 10.847 19.625 9.3125C19.625 8.76549 19.4077 8.24089 19.0209 7.85409C18.6341 7.4673 18.1095 7.25 17.5625 7.25H13.8912C14.0425 7.68037 14.125 8.14375 14.125 8.625C14.1263 9.63991 13.7521 10.6194 13.0745 11.375H13.4375ZM15.3446 14.026C15.445 14.268 15.5 14.5347 15.5 14.8125C15.5 16.347 14.8689 17.5762 13.8335 18.4081C12.8146 19.2262 11.4479 19.625 10 19.625C8.55213 19.625 7.18537 19.2262 6.1665 18.4081C5.1325 17.5762 4.5 16.347 4.5 14.8125C4.49927 14.5414 4.55213 14.2729 4.65552 14.0224C4.75891 13.7718 4.91081 13.5441 5.10247 13.3525C5.29414 13.1608 5.5218 13.0089 5.77236 12.9055C6.02292 12.8021 6.29145 12.7493 6.5625 12.75H13.4375C13.846 12.7499 14.2454 12.8711 14.5849 13.0983C14.9244 13.3255 15.1888 13.6484 15.3446 14.026Z" fill="#F80D38"/>
</svg>
