<svg width="26" height="21" viewBox="0 0 26 21" fill="none" xmlns="http://www.w3.org/2000/svg">
<path d="M2.71481 15.36L6.44814 13.2L11.1148 15.9L13.8513 14.3178C13.2781 14.0532 12.748 13.7094 12.2777 13.2972L14.9153 10.752C15.3465 11.1048 15.886 11.328 16.4815 11.3766V13.6032L16.9481 13.8732V11.3766C17.5455 11.3298 18.0831 11.1048 18.5143 10.752L21.1519 13.2972C20.394 13.9776 19.4625 14.4654 18.4396 14.7372L20.4481 15.9L21.7511 15.144C22.7923 14.3957 23.6384 13.4237 24.2223 12.3051C24.8062 11.1866 25.1118 9.95226 25.1148 8.70001C25.1148 6.55175 24.2298 4.49149 22.6545 2.97244C21.0792 1.4534 18.9426 0.600006 16.7148 0.600006C15.5559 0.601886 14.41 0.836349 13.3501 1.28848C12.2902 1.74061 11.3396 2.40052 10.5585 3.22621L7.38148 0.600006L0.848145 6.00001H2.71481V15.36ZM21.4823 12.9786L18.8428 10.4352C19.2087 10.0194 19.4401 9.49921 19.4905 8.92501H23.2239C23.1701 10.4347 22.5515 11.8746 21.4823 12.9786ZM23.2239 8.47501H19.4905C19.4441 7.91892 19.2182 7.39082 18.8447 6.96481L21.4823 4.42141C22.5183 5.49421 23.166 6.90901 23.2239 8.47501ZM16.9481 2.42341C18.5721 2.47921 20.0393 3.10381 21.1519 4.10281L18.5143 6.64801C18.0725 6.2878 17.5248 6.07001 16.9481 6.02521V2.42521V2.42341ZM16.4815 2.42341V6.02341C15.8841 6.07021 15.3465 6.29521 14.9153 6.64621L12.2777 4.10281C13.4227 3.07191 14.9159 2.47538 16.4815 2.42341V2.42341ZM11.9473 4.42141L14.5868 6.96481C14.2228 7.38061 13.9895 7.90081 13.9409 8.47501H10.2076C10.2655 6.90901 10.9132 5.49421 11.9492 4.42141H11.9473ZM13.9391 8.92501C13.9876 9.50101 14.2209 10.0194 14.5868 10.4352L11.9473 12.9786C10.8783 11.8745 10.2596 10.4347 10.2057 8.92501H13.9391V8.92501ZM15.7852 15L11.1148 17.7L6.44814 15L1.78148 17.7V20.4L6.44814 17.7L11.1148 20.4L15.7852 17.7L20.4481 20.4L25.1148 17.7V15L20.4481 17.7L15.7852 15Z" fill="#FF8F6B"/>
</svg>
