<svg width="21" height="22" viewBox="0 0 21 22" fill="none" xmlns="http://www.w3.org/2000/svg">
<path d="M16 9.41665C16 9.83086 16.3358 10.1666 16.75 10.1666C17.1642 10.1666 17.5 9.83086 17.5 9.41665H16ZM10.2083 1.08331C10.2083 0.669099 9.87255 0.333313 9.45833 0.333313C9.04412 0.333313 8.70833 0.669099 8.70833 1.08331H10.2083ZM19.875 20.875V21.625C20.2892 21.625 20.625 21.2892 20.625 20.875H19.875ZM19.875 11.5H20.625C20.625 11.0858 20.2892 10.75 19.875 10.75V11.5ZM16.75 11.5V10.75C16.3358 10.75 16 11.0858 16 11.5H16.75ZM1.125 20.875H0.375C0.375 21.2892 0.710786 21.625 1.125 21.625L1.125 20.875ZM1.125 16.7083L0.636906 16.1389C0.470672 16.2814 0.375 16.4894 0.375 16.7083H1.125ZM4.77083 13.5833L5.16833 12.9473C4.89032 12.7736 4.53166 12.8005 4.28274 13.0139L4.77083 13.5833ZM8.9375 16.1875L8.54 16.8235C8.7832 16.9755 9.0918 16.9755 9.335 16.8235L8.9375 16.1875ZM13.1042 13.5833L13.5401 12.973C13.2931 12.7966 12.9641 12.7864 12.7067 12.9473L13.1042 13.5833ZM19.125 9.41665C19.125 9.83086 19.4608 10.1666 19.875 10.1666C20.2892 10.1666 20.625 9.83086 20.625 9.41665H19.125ZM15.7083 3.16665V2.41665C15.3122 2.41665 14.9844 2.72469 14.9598 3.12004C14.9352 3.51539 15.2222 3.86172 15.6153 3.91085L15.7083 3.16665ZM20.625 1.08331C20.625 0.669099 20.2892 0.333313 19.875 0.333313C19.4608 0.333313 19.125 0.669099 19.125 1.08331H20.625ZM17.5 9.41665C17.5 7.77498 15.9083 6.58331 13.625 6.58331V8.08331C15.5083 8.08331 16 8.97498 16 9.41665H17.5ZM13.625 6.58331H12.5833V8.08331H13.625V6.58331ZM12.5833 6.58331C11.9534 6.58331 11.3494 6.33309 10.904 5.88769L9.84329 6.94835C10.57 7.67505 11.5556 8.08331 12.5833 8.08331V6.58331ZM10.904 5.88769C10.4586 5.44229 10.2083 4.8382 10.2083 4.20831H8.70833C8.70833 5.23603 9.11659 6.22165 9.84329 6.94835L10.904 5.88769ZM10.2083 4.20831V1.08331H8.70833V4.20831H10.2083ZM16.75 21.625H19.875V20.125H16.75V21.625ZM20.625 20.875V11.5H19.125V20.875H20.625ZM19.875 10.75H16.75V12.25H19.875V10.75ZM16 11.5V16.1875H17.5V11.5H16ZM16 16.1875V20.875H17.5V16.1875H16ZM16.75 20.125H1.125V21.625H16.75V20.125ZM1.875 20.875V16.7083H0.375V20.875H1.875ZM1.61309 17.2778L5.25893 14.1528L4.28274 13.0139L0.636906 16.1389L1.61309 17.2778ZM4.37333 14.2193L8.54 16.8235L9.335 15.5515L5.16833 12.9473L4.37333 14.2193ZM9.335 16.8235L13.5017 14.2193L12.7067 12.9473L8.54 15.5515L9.335 16.8235ZM12.6682 14.1936L16.3141 16.7978L17.1859 15.5772L13.5401 12.973L12.6682 14.1936ZM20.625 9.41665C20.625 6.10865 19.511 4.29986 18.2417 3.3479C17.6243 2.8849 17.0066 2.65302 16.5413 2.5367C16.3082 2.47843 16.111 2.44852 15.9673 2.43312C15.8953 2.42541 15.8363 2.4213 15.7926 2.41911C15.7707 2.41801 15.7525 2.4174 15.7384 2.41706C15.7314 2.41689 15.7253 2.41678 15.7203 2.41672C15.7178 2.41669 15.7155 2.41667 15.7135 2.41666C15.7125 2.41666 15.7116 2.41665 15.7107 2.41665C15.7103 2.41665 15.7097 2.41665 15.7095 2.41665C15.7089 2.41665 15.7083 2.41665 15.7083 3.16665C15.7083 3.91665 15.7078 3.91665 15.7073 3.91665C15.7071 3.91664 15.7066 3.91664 15.7063 3.91664C15.7057 3.91664 15.7052 3.91664 15.7047 3.91664C15.7037 3.91663 15.7029 3.91662 15.7024 3.91662C15.7014 3.9166 15.7013 3.9166 15.7021 3.91662C15.7038 3.91666 15.7091 3.91681 15.7177 3.91724C15.7349 3.9181 15.7655 3.92009 15.8075 3.92458C15.8916 3.9336 16.0199 3.95252 16.1775 3.99191C16.4934 4.07089 16.9173 4.22964 17.3417 4.5479C18.1557 5.15843 19.125 6.47464 19.125 9.41665H20.625ZM15.7083 3.16665C15.6153 3.91085 15.6155 3.91088 15.6158 3.91092C15.6159 3.91093 15.6162 3.91096 15.6164 3.91099C15.6168 3.91104 15.6173 3.9111 15.6179 3.91117C15.619 3.91131 15.6203 3.91147 15.622 3.91167C15.6252 3.91206 15.6294 3.91256 15.6347 3.91316C15.6451 3.91436 15.6594 3.91595 15.6774 3.91782C15.7134 3.92157 15.764 3.92645 15.8273 3.93153C15.9536 3.94168 16.1314 3.95275 16.3438 3.95717C16.7641 3.96593 17.3406 3.94918 17.9299 3.8387C18.5093 3.73006 19.1689 3.51855 19.6969 3.08955C20.2566 2.63483 20.625 1.96813 20.625 1.08331H19.125C19.125 1.50058 18.9726 1.74534 18.751 1.92538C18.4978 2.13115 18.1157 2.27772 17.6534 2.36439C17.201 2.44921 16.7359 2.46502 16.375 2.4575C16.1968 2.45379 16.049 2.44451 15.9474 2.43635C15.8968 2.43228 15.8579 2.42851 15.8328 2.4259C15.8203 2.42459 15.8112 2.42358 15.8059 2.42296C15.8032 2.42266 15.8015 2.42245 15.8007 2.42236C15.8004 2.42231 15.8002 2.4223 15.8003 2.42231C15.8004 2.42231 15.8005 2.42233 15.8007 2.42235C15.8007 2.42236 15.8009 2.42238 15.801 2.42239C15.8011 2.42241 15.8014 2.42244 15.7083 3.16665Z" fill="black"/>
</svg>
