<svg width="24" height="24" viewBox="0 0 24 24" fill="none" xmlns="http://www.w3.org/2000/svg">
<path d="M12.5 15.6365H6.66667V9.56389H12.5V15.6365ZM8.33334 13.9015H10.8333V11.2989H8.33334V13.9015Z" fill="#72D1FF"/>
<path d="M12.5 23.4442H6.66667V17.3716H12.5V23.4442ZM8.33334 21.7092H10.8333V19.1066H8.33334V21.7092Z" fill="#72D1FF"/>
<path d="M20 15.6365H14.1667V9.56389H20V15.6365ZM15.8333 13.9015H18.3333V11.2989H15.8333V13.9015Z" fill="#72D1FF"/>
<path d="M20 23.4442H14.1667V17.3716H20V23.4442ZM15.8333 21.7092H18.3333V19.1066H15.8333V21.7092Z" fill="#72D1FF"/>
<path d="M5 21.7092H1.66667C1.22478 21.7087 0.801108 21.5258 0.488643 21.2005C0.176178 20.8752 0.000441231 20.4342 0 19.9741V2.62372C0.000441231 2.1637 0.176178 1.72265 0.488643 1.39737C0.801108 1.07208 1.22478 0.889138 1.66667 0.888678H7.98834C8.20728 0.888061 8.42417 0.932676 8.62644 1.01994C8.8287 1.1072 9.01233 1.23538 9.16667 1.39705L12.0117 4.35876H21.6667C22.1086 4.35922 22.5322 4.54217 22.8447 4.86745C23.1572 5.19274 23.3329 5.63379 23.3333 6.09381V13.034H21.6667V6.09381H11.3217L7.98834 2.62372H1.66667V19.9741H5V21.7092Z" fill="#72D1FF"/>
</svg>
