<svg width="28" height="21" viewBox="0 0 28 21" fill="none" xmlns="http://www.w3.org/2000/svg">
<path fill-rule="evenodd" clip-rule="evenodd" d="M0 1.90909C0 0.85473 0.85473 0 1.90909 0H12.4091C13.4635 0 14.3182 0.85473 14.3182 1.90909C14.3182 2.96345 13.4635 3.81818 12.4091 3.81818H1.90909C0.85473 3.81818 0 2.96345 0 1.90909Z" fill="#53B9EA"/>
<path fill-rule="evenodd" clip-rule="evenodd" d="M0 10.5C0 9.44562 0.85473 8.59089 1.90909 8.59089H25.7727C26.8271 8.59089 27.6818 9.44562 27.6818 10.5C27.6818 11.5543 26.8271 12.4091 25.7727 12.4091H1.90909C0.85473 12.4091 0 11.5543 0 10.5Z" fill="#53B9EA"/>
<path fill-rule="evenodd" clip-rule="evenodd" d="M0 19.0909C0 18.0365 0.85473 17.1818 1.90909 17.1818H21.9546C23.0089 17.1818 23.8637 18.0365 23.8637 19.0909C23.8637 20.1453 23.0089 21 21.9546 21H1.90909C0.85473 21 0 20.1453 0 19.0909Z" fill="#53B9EA"/>
</svg>
