<svg width="9" height="13" viewBox="0 0 9 13" fill="none" xmlns="http://www.w3.org/2000/svg">
<path d="M4.5 6.21875C4.12704 6.21875 3.76935 6.07059 3.50563 5.80687C3.24191 5.54315 3.09375 5.18546 3.09375 4.8125C3.09375 4.43954 3.24191 4.08185 3.50563 3.81813C3.76935 3.55441 4.12704 3.40625 4.5 3.40625C4.87296 3.40625 5.23065 3.55441 5.49437 3.81813C5.75809 4.08185 5.90625 4.43954 5.90625 4.8125C5.90625 4.99717 5.86988 5.18004 5.79921 5.35065C5.72853 5.52126 5.62495 5.67629 5.49437 5.80687C5.36379 5.93745 5.20876 6.04104 5.03815 6.11171C4.86753 6.18238 4.68467 6.21875 4.5 6.21875V6.21875ZM4.5 0.875C3.45571 0.875 2.45419 1.28984 1.71577 2.02827C0.977342 2.76669 0.5625 3.76821 0.5625 4.8125C0.5625 7.76563 4.5 12.125 4.5 12.125C4.5 12.125 8.4375 7.76563 8.4375 4.8125C8.4375 3.76821 8.02266 2.76669 7.28423 2.02827C6.54581 1.28984 5.54429 0.875 4.5 0.875V0.875Z" fill="#FF0000"/>
</svg>
