<svg width="24" height="24" viewBox="0 0 24 24" fill="none" xmlns="http://www.w3.org/2000/svg">
<path d="M12.2807 2.67819C12.4707 2.67819 12.6529 2.76243 12.7873 2.91239C12.9216 3.06234 12.9971 3.26573 12.9971 3.4778V5.87663C12.9971 6.0887 12.9216 6.29208 12.7873 6.44204C12.6529 6.59199 12.4707 6.67624 12.2807 6.67624C12.0907 6.67624 11.9085 6.59199 11.7742 6.44204C11.6398 6.29208 11.5643 6.0887 11.5643 5.87663V3.4778C11.5643 3.26573 11.6398 3.06234 11.7742 2.91239C11.9085 2.76243 12.0907 2.67819 12.2807 2.67819ZM6.16573 5.44804C6.30007 5.29813 6.48225 5.21392 6.67221 5.21392C6.86217 5.21392 7.04435 5.29813 7.17869 5.44804L8.48965 6.90972C8.62417 7.05987 8.69974 7.26351 8.69974 7.47585C8.69974 7.68818 8.62417 7.89182 8.48965 8.04197C8.35514 8.19211 8.17269 8.27647 7.98246 8.27647C7.79223 8.27647 7.60978 8.19211 7.47527 8.04197L6.16573 6.57868C6.03143 6.42873 5.95599 6.22539 5.95599 6.01336C5.95599 5.80133 6.03143 5.59798 6.16573 5.44804ZM3.68421 12.2735C3.68421 12.0614 3.75969 11.8581 3.89403 11.7081C4.02838 11.5581 4.21059 11.4739 4.40059 11.4739H6.67293C6.86292 11.4739 7.04513 11.5581 7.17948 11.7081C7.31383 11.8581 7.3893 12.0614 7.3893 12.2735C7.3893 12.4856 7.31383 12.689 7.17948 12.8389C7.04513 12.9889 6.86292 13.0731 6.67293 13.0731H4.40059C4.21059 13.0731 4.02838 12.9889 3.89403 12.8389C3.75969 12.689 3.68421 12.4856 3.68421 12.2735ZM17.2953 12.2735C17.2953 12.0614 17.3708 11.8581 17.5051 11.7081C17.6395 11.5581 17.8217 11.4739 18.0117 11.4739H20.1608C20.3508 11.4739 20.533 11.5581 20.6674 11.7081C20.8017 11.8581 20.8772 12.0614 20.8772 12.2735C20.8772 12.4856 20.8017 12.689 20.6674 12.8389C20.533 12.9889 20.3508 13.0731 20.1608 13.0731H18.0117C17.8217 13.0731 17.6395 12.9889 17.5051 12.8389C17.3708 12.689 17.2953 12.4856 17.2953 12.2735ZM18.3756 5.48322C18.2764 5.37301 18.1436 5.30853 18.0037 5.30261C17.8638 5.29668 17.727 5.34974 17.6206 5.45123L11.6317 11.17C11.4937 11.3019 11.382 11.4644 11.3036 11.6472C11.2252 11.8301 11.1818 12.0291 11.1764 12.2317C11.1709 12.4343 11.2034 12.636 11.2718 12.8238C11.3403 13.0115 11.443 13.1813 11.5736 13.3221C11.7042 13.4629 11.8597 13.5718 12.0302 13.6416C12.2007 13.7115 12.3823 13.7409 12.5636 13.7278C12.7448 13.7148 12.9215 13.6596 13.0826 13.5659C13.2436 13.4721 13.3853 13.3419 13.4985 13.1835L18.4186 6.31161C18.5042 6.19202 18.5473 6.04139 18.5396 5.88856C18.532 5.73572 18.4741 5.5914 18.3771 5.48322H18.3756Z" fill="#72D1FF"/>
<path fill-rule="evenodd" clip-rule="evenodd" d="M9.71849 23.3901C8.20796 23.1344 6.7626 22.5836 5.46494 21.7692C4.16728 20.9549 3.04273 19.8929 2.15549 18.644C0.363642 16.1216 -0.35279 12.9908 0.163805 9.94023C0.6804 6.88967 2.3877 4.16927 4.91013 2.37747C7.43256 0.585676 10.5635 -0.130733 13.6141 0.385846C16.665 0.902424 19.3857 2.60975 21.1776 5.13224C22.9696 7.65472 23.6861 10.7857 23.1695 13.8365C22.653 16.8872 20.9456 19.6078 18.423 21.3998C15.9004 23.1917 12.7693 23.9082 9.71849 23.3916V23.3901ZM2.91715 17.1459C5.57599 15.6075 8.59446 14.7997 11.6663 14.8045C14.8534 14.8045 17.8422 15.6574 20.4155 17.1459C21.3455 15.5974 21.8478 13.8298 21.8711 12.0236C21.8945 10.2175 21.438 8.43747 20.5483 6.86543C19.6586 5.2934 18.3676 3.98566 16.8072 3.07577C15.2467 2.16589 13.4727 1.68646 11.6663 1.68646C9.85994 1.68646 8.08593 2.16589 6.52547 3.07577C4.96501 3.98566 3.67402 5.2934 2.78434 6.86543C1.89466 8.43747 1.43817 10.2175 1.4615 12.0236C1.48484 13.8298 1.98715 15.5974 2.91715 17.1459Z" fill="#72D1FF"/>
</svg>
