<svg width="20" height="24" viewBox="0 0 20 24" fill="none" xmlns="http://www.w3.org/2000/svg">
<path d="M14.3191 11.8561L14.3075 11.8855C14.3111 11.8766 14.314 11.8675 14.3177 11.8587L14.3191 11.8561Z" fill="#72D1FF"/>
<path d="M9.72271 0.444214C5.71764 0.444214 2.43056 3.58955 2.43056 7.42602C2.43056 8.91282 2.92639 10.2984 3.7625 11.4333L3.73261 11.3885L8.40073 19.1347L8.42431 19.1643C8.61243 19.4 8.79861 19.5899 9.02393 19.733C9.24924 19.876 9.53775 19.9663 9.82115 19.939C10.3875 19.8844 10.7166 19.5087 11.0206 19.113L11.0396 19.0885L16.186 10.6806L16.1902 10.6736C16.3134 10.4601 16.4026 10.2447 16.4789 10.0361C16.8319 9.2076 17.0136 8.32111 17.0139 7.42602C17.0139 3.58955 13.7278 0.444214 9.72271 0.444214ZM9.72271 1.61088C13.0657 1.61088 15.7986 4.22842 15.7986 7.42602C15.7988 8.17289 15.6469 8.91259 15.3514 9.60348L15.3453 9.61795L15.34 9.63312C15.276 9.80975 15.2065 9.97005 15.1263 10.1091L10.0321 18.4312C9.80681 18.7161 9.64931 18.7835 9.69986 18.7784C9.72587 18.7761 9.74993 18.7957 9.69427 18.7602C9.64105 18.7264 9.5324 18.6272 9.40358 18.4695L4.77118 10.7809L4.7549 10.7592C4.0566 9.81185 3.64583 8.66455 3.64583 7.42602C3.64583 4.22865 6.37972 1.61088 9.72271 1.61088ZM9.72271 3.44255C7.42292 3.44255 5.56281 5.22195 5.56281 7.42602C5.56281 9.63008 7.42316 11.4095 9.72271 11.4095C12.0223 11.4095 13.8816 9.62985 13.8816 7.42602C13.8816 5.22195 12.0223 3.44255 9.72271 3.44255ZM9.72271 4.60922C11.3796 4.60922 12.6664 5.84238 12.6664 7.42602C12.6664 9.00965 11.3799 10.2428 9.72271 10.2428C8.06556 10.2428 6.77809 9.00942 6.77809 7.42602C6.77809 5.84238 8.0658 4.60922 9.72271 4.60922Z" fill="#72D1FF"/>
<path d="M5.83479 16.5575C2.40139 17.0233 0 18.1374 0 19.7775C0 21.9867 4.01236 23.7776 9.72223 23.7776C15.4321 23.7776 19.4445 21.9867 19.4445 19.7775C19.4445 18.1374 17.0433 17.0233 13.6101 16.5575L13.1345 17.335C15.7221 17.6796 17.5 18.4039 17.5 19.2444C17.5 20.4227 14.0177 21.3777 9.72223 21.3777C5.4267 21.3777 1.94445 20.4227 1.94445 19.2444C1.9442 18.4067 3.71049 17.6831 6.30608 17.3371C6.14931 17.0772 5.99181 16.8177 5.83479 16.5575Z" fill="#72D1FF"/>
</svg>
