<svg width="20" height="19" viewBox="0 0 20 19" fill="none" xmlns="http://www.w3.org/2000/svg">
<path d="M10.3839 12.0625H5.69638V7.37499H10.3839V12.0625ZM7.03566 10.7232H9.04459V8.71428H7.03566V10.7232Z" fill="black"/>
<path d="M10.3839 18.0893H5.69638V13.4018H10.3839V18.0893ZM7.03566 16.75H9.04459V14.7411H7.03566V16.75Z" fill="black"/>
<path d="M16.4107 12.0625H11.7232V7.37499H16.4107V12.0625ZM13.0624 10.7232H15.0714V8.71428H13.0624V10.7232Z" fill="black"/>
<path d="M16.4107 18.0893H11.7232V13.4018H16.4107V18.0893ZM13.0624 16.75H15.0714V14.7411H13.0624V16.75Z" fill="black"/>
<path d="M4.35709 16.75H1.67852C1.32343 16.7496 0.982981 16.6084 0.731893 16.3573C0.480805 16.1062 0.339588 15.7658 0.339233 15.4107V2.01785C0.339588 1.66276 0.480805 1.32231 0.731893 1.07122C0.982981 0.820135 1.32343 0.678918 1.67852 0.678563H6.75843C6.93437 0.678087 7.10866 0.712526 7.27119 0.779885C7.43373 0.847244 7.58128 0.946184 7.70531 1.07097L9.99147 3.35713H17.75C18.105 3.35749 18.4455 3.49871 18.6966 3.74979C18.9477 4.00088 19.0889 4.34133 19.0892 4.69642V10.0536H17.75V4.69642H9.437L6.75843 2.01785H1.67852V15.4107H4.35709V16.75Z" fill="black"/>
</svg>
