<svg width="22" height="16" viewBox="0 0 22 16" fill="none" xmlns="http://www.w3.org/2000/svg">
<path d="M16.0131 15.528C15.6781 15.528 15.4065 15.2564 15.4065 14.9214C15.4065 12.5467 13.4746 10.6148 11.1 10.6148H10.1901C7.81546 10.6148 5.88353 12.5467 5.88353 14.9214C5.88353 15.2564 5.61197 15.528 5.27697 15.528C4.94197 15.528 4.67041 15.2564 4.67041 14.9214C4.67041 11.8778 7.14654 9.40169 10.1901 9.40169H11.1C14.1435 9.40169 16.6197 11.8778 16.6197 14.9214C16.6197 15.2564 16.3481 15.528 16.0131 15.528ZM14.6787 4.09428C14.6787 1.8367 12.842 0 10.5844 0C8.32679 0 6.49009 1.8367 6.49009 4.09428C6.49009 6.35187 8.32679 8.18857 10.5844 8.18857C12.842 8.18857 14.6787 6.35187 14.6787 4.09428ZM13.4655 4.09428C13.4655 5.68296 12.173 6.97545 10.5844 6.97545C8.9957 6.97545 7.70321 5.68296 7.70321 4.09428C7.70321 2.50561 8.9957 1.21312 10.5844 1.21312C12.173 1.21312 13.4655 2.50561 13.4655 4.09428Z" fill="black"/>
<path d="M21.0934 15.7113C20.8572 15.7113 20.6657 15.5198 20.6657 15.2836C20.6657 13.6091 19.3034 12.2469 17.629 12.2469H16.9874C15.3129 12.2469 13.9506 13.6091 13.9506 15.2836C13.9506 15.5198 13.7592 15.7113 13.5229 15.7113C13.2867 15.7113 13.0952 15.5198 13.0952 15.2836C13.0952 13.1375 14.8412 11.3914 16.9874 11.3914H17.629C19.7751 11.3914 21.5211 13.1375 21.5211 15.2836C21.5211 15.5198 21.3297 15.7113 21.0934 15.7113ZM20.1525 7.64896C20.1525 6.05704 18.8573 4.7619 17.2654 4.7619C15.6735 4.7619 14.3784 6.05704 14.3784 7.64896C14.3784 9.24088 15.6735 10.536 17.2654 10.536C18.8573 10.536 20.1525 9.24088 20.1525 7.64896ZM19.297 7.64896C19.297 8.7692 18.3856 9.68059 17.2654 9.68059C16.1452 9.68059 15.2338 8.7692 15.2338 7.64896C15.2338 6.52872 16.1452 5.61733 17.2654 5.61733C18.3856 5.61733 19.297 6.52872 19.297 7.64896Z" fill="black"/>
<path d="M7.99822 15.528C7.76199 15.528 7.5705 15.3365 7.5705 15.1002C7.5705 13.4258 6.20822 12.0635 4.53375 12.0635H3.89218C2.21771 12.0635 0.855424 13.4258 0.855424 15.1002C0.855424 15.3365 0.663938 15.528 0.427712 15.528C0.191487 15.528 0 15.3365 0 15.1002C0 12.9541 1.74603 11.2081 3.89218 11.2081H4.53375C6.6799 11.2081 8.42593 12.9541 8.42593 15.1002C8.42593 15.3365 8.23444 15.528 7.99822 15.528ZM7.05725 7.46558C7.05725 5.87366 5.76212 4.57852 4.17019 4.57852C2.57827 4.57852 1.28314 5.87366 1.28314 7.46558C1.28314 9.0575 2.57827 10.3526 4.17019 10.3526C5.76212 10.3526 7.05725 9.0575 7.05725 7.46558ZM6.20183 7.46558C6.20183 8.58582 5.29044 9.49721 4.17019 9.49721C3.04995 9.49721 2.13856 8.58582 2.13856 7.46558C2.13856 6.34534 3.04995 5.43395 4.17019 5.43395C5.29044 5.43395 6.20183 6.34534 6.20183 7.46558Z" fill="black"/>
</svg>
