<svg width="9" height="12" viewBox="0 0 9 12" fill="none" xmlns="http://www.w3.org/2000/svg">
<path d="M4.49996 5.72917C4.15463 5.72917 3.82344 5.5865 3.57925 5.33254C3.33506 5.07859 3.19788 4.73415 3.19788 4.375C3.19788 4.01585 3.33506 3.67142 3.57925 3.41746C3.82344 3.16351 4.15463 3.02083 4.49996 3.02083C4.84529 3.02083 5.17648 3.16351 5.42067 3.41746C5.66486 3.67142 5.80204 4.01585 5.80204 4.375C5.80204 4.55283 5.76836 4.72892 5.70293 4.89322C5.63749 5.05751 5.54158 5.2068 5.42067 5.33254C5.29976 5.45829 5.15622 5.55804 4.99825 5.62609C4.84027 5.69414 4.67095 5.72917 4.49996 5.72917V5.72917ZM4.49996 0.583334C3.53302 0.583334 2.60569 0.982812 1.92197 1.69389C1.23824 2.40496 0.854126 3.36939 0.854126 4.375C0.854126 7.21875 4.49996 11.4167 4.49996 11.4167C4.49996 11.4167 8.14579 7.21875 8.14579 4.375C8.14579 3.36939 7.76168 2.40496 7.07795 1.69389C6.39423 0.982812 5.46689 0.583334 4.49996 0.583334V0.583334Z" fill="#FF8A00"/>
</svg>
