<svg width="17" height="19" viewBox="0 0 17 19" fill="none" xmlns="http://www.w3.org/2000/svg">
<path d="M12.0935 9.29252L12.0844 9.31646C12.0872 9.30924 12.0895 9.30183 12.0924 9.29461L12.0935 9.29252Z" fill="black"/>
<path d="M8.5004 0C5.36958 0 2.80002 2.5612 2.80002 5.68518C2.80002 6.89586 3.18762 8.02408 3.84122 8.94824L3.81785 8.91176L7.46699 15.2194L7.48542 15.2435C7.63248 15.4354 7.77802 15.5901 7.95415 15.7065C8.13028 15.823 8.35581 15.8965 8.57735 15.8743C9.02005 15.8299 9.27731 15.524 9.515 15.2017L9.52982 15.1818L13.5529 8.3353L13.5561 8.3296C13.6524 8.15575 13.7222 7.98038 13.7818 7.81052C14.0577 7.1359 14.1998 6.41404 14.2 5.68518C14.2 2.5612 11.6312 0 8.5004 0ZM8.5004 0.95C11.1137 0.95 13.25 3.08142 13.25 5.68518C13.2502 6.29335 13.1314 6.89568 12.9004 7.45826L12.8957 7.47004L12.8915 7.48239C12.8415 7.62622 12.7872 7.75675 12.7245 7.86999L8.74227 14.6465C8.56614 14.8785 8.44302 14.9334 8.48254 14.9292C8.50287 14.9273 8.52168 14.9433 8.47817 14.9144C8.43656 14.8869 8.35163 14.8061 8.25093 14.6777L4.62972 8.417L4.61699 8.39933C4.07112 7.62793 3.75002 6.6937 3.75002 5.68518C3.75002 3.08161 5.88714 0.95 8.5004 0.95ZM8.5004 2.4415C6.70262 2.4415 5.24855 3.89044 5.24855 5.68518C5.24855 7.47992 6.70281 8.92886 8.5004 8.92886C10.298 8.92886 11.7515 7.47973 11.7515 5.68518C11.7515 3.89044 10.298 2.4415 8.5004 2.4415ZM8.5004 3.3915C9.79563 3.3915 10.8015 4.39565 10.8015 5.68518C10.8015 6.97471 9.79582 7.97886 8.5004 7.97886C7.20498 7.97886 6.19855 6.97452 6.19855 5.68518C6.19855 4.39565 7.20517 3.3915 8.5004 3.3915Z" fill="black"/>
<path d="M5.46116 13.1208C2.77722 13.5001 0.900024 14.4073 0.900024 15.7428C0.900024 17.5418 4.03654 19 8.50002 19C12.9635 19 16.1 17.5418 16.1 15.7428C16.1 14.4073 14.223 13.5001 11.5393 13.1208L11.1674 13.7539C13.1902 14.0345 14.58 14.6243 14.58 15.3087C14.58 16.2682 11.8579 17.0459 8.50002 17.0459C5.14215 17.0459 2.42002 16.2682 2.42002 15.3087C2.41983 14.6266 3.80056 14.0374 5.82957 13.7556C5.70702 13.544 5.5839 13.3327 5.46116 13.1208Z" fill="black"/>
</svg>
