<svg width="32" height="114" viewBox="0 0 32 114" fill="none" xmlns="http://www.w3.org/2000/svg">
<path d="M32 98C32 106.837 24.8366 114 16 114C7.16344 114 0 106.837 0 98C0 89.1634 7.16344 82 16 82C24.8366 82 32 89.1634 32 98Z" fill="white"/>
<path d="M32 57C32 65.8366 24.8366 73 16 73C7.16344 73 0 65.8366 0 57C0 48.1634 7.16344 41 16 41C24.8366 41 32 48.1634 32 57Z" fill="white"/>
<path d="M32 16C32 24.8366 24.8366 32 16 32C7.16344 32 0 24.8366 0 16C0 7.16344 7.16344 0 16 0C24.8366 0 32 7.16344 32 16Z" fill="white"/>
<path d="M12 98.5172V97H20.0461V98.5172H12Z" fill="black"/>
<path d="M14.669 53H16.5036V61.6486H14.669V53Z" fill="black"/>
<path d="M11 58.1891V56.4594H20.1726V58.1891H11Z" fill="black"/>
</svg>
