<svg width="23" height="23" viewBox="0 0 23 23" fill="none" xmlns="http://www.w3.org/2000/svg">
<path d="M9.76015 6.19725C9.56847 5.99847 9.25194 5.99271 9.05316 6.18439C8.85438 6.37607 8.84863 6.69261 9.04031 6.89138L9.76015 6.19725ZM11.5002 8.7221L11.1403 9.06916C11.2345 9.16689 11.3645 9.2221 11.5002 9.2221C11.636 9.2221 11.7659 9.16689 11.8602 9.06916L11.5002 8.7221ZM13.9602 6.89138C14.1518 6.69261 14.1461 6.37607 13.9473 6.18439C13.7485 5.99271 13.432 5.99847 13.2403 6.19725L13.9602 6.89138ZM11.5 2.7332H11V2.73322L11.5 2.7332ZM13.6 0.55542V0.0554199V0.55542ZM19.9 0.55542V0.0554199V0.55542ZM21.5 8.72209C21.5 8.99823 21.7239 9.22209 22 9.22209C22.2762 9.22209 22.5 8.99823 22.5 8.72209H21.5ZM13.2403 16.6914C13.432 16.8902 13.7485 16.8959 13.9473 16.7042C14.1461 16.5126 14.1518 16.196 13.9602 15.9972L13.2403 16.6914ZM11.5002 14.1665L11.8602 13.8195C11.7659 13.7217 11.636 13.6665 11.5002 13.6665C11.3645 13.6665 11.2345 13.7217 11.1403 13.8195L11.5002 14.1665ZM9.04031 15.9972C8.84863 16.196 8.85438 16.5126 9.05316 16.7042C9.25194 16.8959 9.56847 16.8902 9.76015 16.6914L9.04031 15.9972ZM11.5 20.1554L11 20.1554V20.1554H11.5ZM1 20.1554H0.5H1ZM1.5 14.1665C1.5 13.8904 1.27614 13.6665 1 13.6665C0.723858 13.6665 0.5 13.8904 0.5 14.1665H1.5ZM16.5849 9.6136C16.7766 9.41482 16.7709 9.09829 16.5721 8.90661C16.3733 8.71493 16.0568 8.72068 15.8651 8.91946L16.5849 9.6136ZM14.125 11.4443L13.7651 11.0972C13.5783 11.2909 13.5783 11.5977 13.7651 11.7914L14.125 11.4443ZM15.8651 13.9692C16.0568 14.1679 16.3733 14.1737 16.5721 13.982C16.7709 13.7903 16.7766 13.4738 16.5849 13.275L15.8651 13.9692ZM19.9 11.4443V11.9443V11.4443ZM14.125 21.8332C13.8489 21.8332 13.625 22.0571 13.625 22.3332C13.625 22.6094 13.8489 22.8332 14.125 22.8332V21.8332ZM6.41502 13.275C6.22334 13.4738 6.2291 13.7903 6.42788 13.982C6.62666 14.1737 6.94319 14.1679 7.13487 13.9692L6.41502 13.275ZM8.87495 11.4443L9.23487 11.7914C9.42164 11.5977 9.42164 11.2909 9.23487 11.0972L8.87495 11.4443ZM7.13487 8.91946C6.94319 8.72068 6.62666 8.71493 6.42788 8.90661C6.2291 9.09829 6.22334 9.41482 6.41502 9.6136L7.13487 8.91946ZM3.1 11.4443V11.9443H3.1L3.1 11.4443ZM1 9.26653H0.5H1ZM3.1 0.55542V0.0554199V0.55542ZM8.875 1.05542C9.15115 1.05542 9.375 0.831562 9.375 0.55542C9.375 0.279278 9.15115 0.0554199 8.875 0.0554199V1.05542ZM9.04031 6.89138L11.1403 9.06916L11.8602 8.37503L9.76015 6.19725L9.04031 6.89138ZM11.8602 9.06916L13.9602 6.89138L13.2403 6.19725L11.1403 8.37503L11.8602 9.06916ZM12.0002 8.72208L12 2.73318L11 2.73322L11.0002 8.72212L12.0002 8.72208ZM12 2.7332C12 2.28248 12.1728 1.85371 12.475 1.54034L11.7552 0.846209C11.2697 1.34967 11 2.02876 11 2.7332H12ZM12.475 1.54034C12.7766 1.2276 13.1816 1.05542 13.6 1.05542V0.0554199C12.9045 0.0554199 12.2412 0.34213 11.7552 0.846209L12.475 1.54034ZM13.6 1.05542H19.9V0.0554199H13.6V1.05542ZM19.9 1.05542C20.3184 1.05542 20.7234 1.2276 21.025 1.54034L21.7449 0.846209C21.2588 0.34213 20.5956 0.0554199 19.9 0.0554199V1.05542ZM21.025 1.54034C21.3272 1.85371 21.5 2.28248 21.5 2.7332H22.5C22.5 2.02876 22.2303 1.34967 21.7449 0.846209L21.025 1.54034ZM21.5 2.7332V8.72209H22.5V2.7332H21.5ZM13.9602 15.9972L11.8602 13.8195L11.1403 14.5136L13.2403 16.6914L13.9602 15.9972ZM11.1403 13.8195L9.04031 15.9972L9.76015 16.6914L11.8602 14.5136L11.1403 13.8195ZM11.0002 14.1665L11 20.1554L12 20.1554L12.0002 14.1666L11.0002 14.1665ZM11 20.1554C11 20.6062 10.8272 21.0349 10.525 21.3483L11.2448 22.0424C11.7303 21.539 12 20.8599 12 20.1554H11ZM10.525 21.3483C10.2234 21.661 9.81836 21.8332 9.4 21.8332V22.8332C10.0956 22.8332 10.7588 22.5465 11.2448 22.0424L10.525 21.3483ZM9.4 21.8332H3.1V22.8332H9.4V21.8332ZM3.1 21.8332C2.68164 21.8332 2.27657 21.661 1.975 21.3483L1.25515 22.0424C1.74123 22.5465 2.40445 22.8332 3.1 22.8332V21.8332ZM1.975 21.3483C1.67283 21.0349 1.5 20.6062 1.5 20.1554H0.5C0.5 20.8599 0.769674 21.539 1.25515 22.0424L1.975 21.3483ZM1.5 20.1554V14.1665H0.5V20.1554H1.5ZM15.8651 8.91946L13.7651 11.0972L14.4849 11.7914L16.5849 9.6136L15.8651 8.91946ZM13.7651 11.7914L15.8651 13.9692L16.5849 13.275L14.4849 11.0972L13.7651 11.7914ZM14.125 11.9443L19.9 11.9443V10.9443L14.125 10.9443L14.125 11.9443ZM19.9 11.9443C20.3184 11.9443 20.7234 12.1165 21.025 12.4292L21.7449 11.7351C21.2588 11.231 20.5956 10.9443 19.9 10.9443V11.9443ZM21.025 12.4292C21.3272 12.7426 21.5 13.1714 21.5 13.6221H22.5C22.5 12.9177 22.2303 12.2386 21.7449 11.7351L21.025 12.4292ZM21.5 13.6221V20.1554H22.5V13.6221H21.5ZM21.5 20.1554C21.5 20.6062 21.3272 21.0349 21.025 21.3483L21.7449 22.0424C22.2303 21.539 22.5 20.8599 22.5 20.1554H21.5ZM21.025 21.3483C20.7234 21.661 20.3184 21.8332 19.9 21.8332V22.8332C20.5956 22.8332 21.2588 22.5465 21.7449 22.0424L21.025 21.3483ZM19.9 21.8332H14.125V22.8332H19.9V21.8332ZM7.13487 13.9692L9.23487 11.7914L8.51503 11.0972L6.41502 13.275L7.13487 13.9692ZM9.23487 11.0972L7.13487 8.91946L6.41502 9.6136L8.51503 11.7914L9.23487 11.0972ZM8.87495 10.9443L3.1 10.9443L3.1 11.9443L8.87495 11.9443L8.87495 10.9443ZM3.1 10.9443C2.68164 10.9443 2.27657 10.7721 1.975 10.4594L1.25515 11.1535C1.74123 11.6576 2.40445 11.9443 3.1 11.9443V10.9443ZM1.975 10.4594C1.67282 10.146 1.5 9.71726 1.5 9.26653H0.5C0.5 9.97098 0.769674 10.6501 1.25515 11.1535L1.975 10.4594ZM1.5 9.26653V2.7332H0.5V9.26653H1.5ZM1.5 2.7332C1.5 2.28248 1.67283 1.85371 1.975 1.54034L1.25515 0.846209C0.769674 1.34967 0.5 2.02876 0.5 2.7332H1.5ZM1.975 1.54034C2.27657 1.2276 2.68164 1.05542 3.1 1.05542V0.0554199C2.40445 0.0554199 1.74123 0.342129 1.25515 0.846209L1.975 1.54034ZM3.1 1.05542H8.875V0.0554199H3.1V1.05542Z" fill="#72D1FF"/>
</svg>
