<svg width="19" height="19" viewBox="0 0 19 19" fill="none" xmlns="http://www.w3.org/2000/svg">
<path d="M8.08706 5.27561C7.8918 5.08035 7.57522 5.08035 7.37995 5.27561C7.18469 5.47087 7.18469 5.78746 7.37995 5.98272L8.08706 5.27561ZM9.41684 7.3125L9.06328 7.66605C9.15705 7.75982 9.28423 7.8125 9.41684 7.8125C9.54945 7.8125 9.67662 7.75982 9.77039 7.66605L9.41684 7.3125ZM11.4537 5.98272C11.649 5.78746 11.649 5.47087 11.4537 5.27561C11.2585 5.08035 10.9419 5.08035 10.7466 5.27561L11.4537 5.98272ZM9.41666 2.68333L8.91666 2.68333L8.91666 2.68335L9.41666 2.68333ZM11.1 1V0.5V1ZM16.15 1V0.5V1ZM17.3333 7.31249C17.3333 7.58863 17.5572 7.81249 17.8333 7.81249C18.1095 7.81249 18.3333 7.58863 18.3333 7.31249H17.3333ZM10.7466 13.5577C10.9419 13.753 11.2585 13.753 11.4537 13.5577C11.649 13.3624 11.649 13.0459 11.4537 12.8506L10.7466 13.5577ZM9.41684 11.5208L9.77039 11.1673C9.67662 11.0735 9.54945 11.0208 9.41684 11.0208C9.28423 11.0208 9.15705 11.0735 9.06328 11.1673L9.41684 11.5208ZM7.37995 12.8506C7.18469 13.0459 7.18469 13.3624 7.37995 13.5577C7.57522 13.753 7.8918 13.753 8.08706 13.5577L7.37995 12.8506ZM9.41666 16.15L8.91666 16.15V16.15H9.41666ZM1 16.15H0.5H1ZM1.5 11.5208C1.5 11.2447 1.27614 11.0208 1 11.0208C0.723858 11.0208 0.5 11.2447 0.5 11.5208H1.5ZM13.5577 8.08688C13.753 7.89161 13.753 7.57503 13.5577 7.37977C13.3624 7.18451 13.0459 7.18451 12.8506 7.37977L13.5577 8.08688ZM11.5208 9.41665L11.1673 9.0631C10.972 9.25836 10.972 9.57494 11.1673 9.77021L11.5208 9.41665ZM12.8506 11.4535C13.0459 11.6488 13.3624 11.6488 13.5577 11.4535C13.753 11.2583 13.753 10.9417 13.5577 10.7464L12.8506 11.4535ZM16.15 9.41666L16.15 9.91666H16.15V9.41666ZM11.5208 17.3333C11.2447 17.3333 11.0208 17.5572 11.0208 17.8333C11.0208 18.1095 11.2447 18.3333 11.5208 18.3333V17.3333ZM5.27556 10.7464C5.0803 10.9417 5.0803 11.2583 5.27556 11.4535C5.47082 11.6488 5.78741 11.6488 5.98267 11.4535L5.27556 10.7464ZM7.31245 9.41665L7.666 9.77021C7.75977 9.67644 7.81245 9.54926 7.81245 9.41665C7.81245 9.28404 7.75977 9.15687 7.666 9.0631L7.31245 9.41665ZM5.98267 7.37977C5.78741 7.18451 5.47082 7.18451 5.27556 7.37977C5.0803 7.57503 5.0803 7.89161 5.27556 8.08688L5.98267 7.37977ZM2.68333 9.41666L2.68333 9.91666L2.68333 9.91666L2.68333 9.41666ZM1 7.73332H0.5H1ZM2.68333 1L2.68333 0.5L2.68333 1ZM7.31249 1.5C7.58863 1.5 7.81249 1.27614 7.81249 1C7.81249 0.723858 7.58863 0.5 7.31249 0.5V1.5ZM7.37995 5.98272L9.06328 7.66605L9.77039 6.95894L8.08706 5.27561L7.37995 5.98272ZM9.77039 7.66605L11.4537 5.98272L10.7466 5.27561L9.06328 6.95894L9.77039 7.66605ZM9.91684 7.31248L9.91666 2.68331L8.91666 2.68335L8.91684 7.31252L9.91684 7.31248ZM9.91666 2.68333C9.91666 2.36949 10.0413 2.06851 10.2632 1.84659L9.55614 1.13948C9.14669 1.54894 8.91666 2.10428 8.91666 2.68333H9.91666ZM10.2632 1.84659C10.4852 1.62467 10.7861 1.5 11.1 1.5V0.5C10.5209 0.5 9.96559 0.730029 9.55614 1.13948L10.2632 1.84659ZM11.1 1.5H16.15V0.5H11.1V1.5ZM16.15 1.5C16.4638 1.5 16.7648 1.62467 16.9867 1.84659L17.6938 1.13948C17.2844 0.730029 16.729 0.5 16.15 0.5V1.5ZM16.9867 1.84659C17.2086 2.06851 17.3333 2.36949 17.3333 2.68333H18.3333C18.3333 2.10428 18.1033 1.54894 17.6938 1.13948L16.9867 1.84659ZM17.3333 2.68333V7.31249H18.3333V2.68333H17.3333ZM11.4537 12.8506L9.77039 11.1673L9.06328 11.8744L10.7466 13.5577L11.4537 12.8506ZM9.06328 11.1673L7.37995 12.8506L8.08706 13.5577L9.77039 11.8744L9.06328 11.1673ZM8.91684 11.5208L8.91666 16.15L9.91666 16.15L9.91684 11.5208L8.91684 11.5208ZM8.91666 16.15C8.91666 16.4638 8.79198 16.7648 8.57007 16.9867L9.27717 17.6938C9.68663 17.2844 9.91666 16.729 9.91666 16.15H8.91666ZM8.57007 16.9867C8.34815 17.2086 8.04716 17.3333 7.73332 17.3333V18.3333C8.31238 18.3333 8.86772 18.1033 9.27717 17.6938L8.57007 16.9867ZM7.73332 17.3333H2.68333V18.3333H7.73332V17.3333ZM2.68333 17.3333C2.36949 17.3333 2.06851 17.2086 1.84659 16.9867L1.13948 17.6938C1.54894 18.1033 2.10428 18.3333 2.68333 18.3333V17.3333ZM1.84659 16.9867C1.62467 16.7648 1.5 16.4638 1.5 16.15H0.5C0.5 16.729 0.730029 17.2844 1.13948 17.6938L1.84659 16.9867ZM1.5 16.15V11.5208H0.5V16.15H1.5ZM12.8506 7.37977L11.1673 9.0631L11.8744 9.77021L13.5577 8.08688L12.8506 7.37977ZM11.1673 9.77021L12.8506 11.4535L13.5577 10.7464L11.8744 9.0631L11.1673 9.77021ZM11.5208 9.91665L16.15 9.91666L16.15 8.91666L11.5208 8.91665L11.5208 9.91665ZM16.15 9.91666C16.4638 9.91666 16.7648 10.0413 16.9867 10.2632L17.6938 9.55614C17.2844 9.14669 16.729 8.91666 16.15 8.91666V9.91666ZM16.9867 10.2632C17.2086 10.4852 17.3333 10.7861 17.3333 11.1H18.3333C18.3333 10.5209 18.1033 9.96559 17.6938 9.55614L16.9867 10.2632ZM17.3333 11.1V16.15H18.3333V11.1H17.3333ZM17.3333 16.15C17.3333 16.4638 17.2086 16.7648 16.9867 16.9867L17.6938 17.6938C18.1033 17.2844 18.3333 16.729 18.3333 16.15H17.3333ZM16.9867 16.9867C16.7648 17.2086 16.4638 17.3333 16.15 17.3333V18.3333C16.729 18.3333 17.2844 18.1033 17.6938 17.6938L16.9867 16.9867ZM16.15 17.3333H11.5208V18.3333H16.15V17.3333ZM5.98267 11.4535L7.666 9.77021L6.95889 9.0631L5.27556 10.7464L5.98267 11.4535ZM7.666 9.0631L5.98267 7.37977L5.27556 8.08688L6.95889 9.77021L7.666 9.0631ZM7.31245 8.91665L2.68333 8.91666L2.68333 9.91666L7.31245 9.91665L7.31245 8.91665ZM2.68333 8.91666C2.36949 8.91666 2.06851 8.79198 1.84659 8.57007L1.13948 9.27717C1.54894 9.68663 2.10428 9.91666 2.68333 9.91666V8.91666ZM1.84659 8.57007C1.62467 8.34815 1.5 8.04716 1.5 7.73332H0.5C0.5 8.31238 0.730029 8.86772 1.13948 9.27717L1.84659 8.57007ZM1.5 7.73332V2.68333H0.5V7.73332H1.5ZM1.5 2.68333C1.5 2.36949 1.62467 2.06851 1.84659 1.84659L1.13948 1.13948C0.730029 1.54894 0.5 2.10428 0.5 2.68333H1.5ZM1.84659 1.84659C2.06851 1.62467 2.36949 1.5 2.68333 1.5L2.68333 0.5C2.10428 0.5 1.54894 0.730029 1.13948 1.13948L1.84659 1.84659ZM2.68333 1.5H7.31249V0.5H2.68333V1.5Z" fill="black"/>
</svg>
