<svg width="25" height="23" viewBox="0 0 25 23" fill="none" xmlns="http://www.w3.org/2000/svg">
<path d="M24.2167 0.799988V22.4H0.81665V14.696C0.81808 14.5697 0.846064 14.4452 0.898783 14.3304C0.951503 14.2157 1.02778 14.1133 1.12265 14.03L6.52265 8.23399C6.65316 8.11932 6.81407 8.04487 6.98596 8.01964C7.15785 7.99441 7.33337 8.01946 7.49134 8.09178C7.6493 8.1641 7.78295 8.2806 7.87617 8.4272C7.96938 8.57381 8.01817 8.74426 8.01665 8.91799V14.318L13.7047 8.25199C13.8334 8.13255 13.9943 8.0534 14.1676 8.0243C14.3408 7.9952 14.5187 8.01742 14.6795 8.08822C14.8402 8.15902 14.9767 8.27531 15.0722 8.42276C15.1676 8.5702 15.2178 8.74235 15.2167 8.91799V18.8H20.6167V0.799988H24.2167Z" fill="#FFC327"/>
</svg>
