<svg width="19" height="19" viewBox="0 0 19 19" fill="none" xmlns="http://www.w3.org/2000/svg">
<path d="M10 2C10.1547 2 10.3031 2.0686 10.4125 2.19071C10.5219 2.31281 10.5833 2.47843 10.5833 2.65111V4.60444C10.5833 4.77713 10.5219 4.94274 10.4125 5.06485C10.3031 5.18695 10.1547 5.25555 10 5.25555C9.84529 5.25555 9.69692 5.18695 9.58752 5.06485C9.47812 4.94274 9.41667 4.77713 9.41667 4.60444V2.65111C9.41667 2.47843 9.47812 2.31281 9.58752 2.19071C9.69692 2.0686 9.84529 2 10 2ZM5.02067 4.25545C5.13006 4.13338 5.2784 4.06481 5.43308 4.06481C5.58776 4.06481 5.73611 4.13338 5.8455 4.25545L6.913 5.44568C7.02253 5.56794 7.08407 5.73376 7.08407 5.90666C7.08407 6.07957 7.02253 6.24539 6.913 6.36765C6.80347 6.48991 6.65491 6.5586 6.5 6.5586C6.34509 6.5586 6.19653 6.48991 6.087 6.36765L5.02067 5.17612C4.91131 5.05402 4.84987 4.88843 4.84987 4.71578C4.84987 4.54313 4.91131 4.37755 5.02067 4.25545ZM3 9.81333C3 9.64064 3.06146 9.47503 3.17085 9.35292C3.28025 9.23081 3.42862 9.16222 3.58333 9.16222H5.43367C5.58838 9.16222 5.73675 9.23081 5.84615 9.35292C5.95554 9.47503 6.017 9.64064 6.017 9.81333C6.017 9.98601 5.95554 10.1516 5.84615 10.2737C5.73675 10.3958 5.58838 10.4644 5.43367 10.4644H3.58333C3.42862 10.4644 3.28025 10.3958 3.17085 10.2737C3.06146 10.1516 3 9.98601 3 9.81333ZM14.0833 9.81333C14.0833 9.64064 14.1448 9.47503 14.2542 9.35292C14.3636 9.23081 14.512 9.16222 14.6667 9.16222H16.4167C16.5714 9.16222 16.7197 9.23081 16.8291 9.35292C16.9385 9.47503 17 9.64064 17 9.81333C17 9.98601 16.9385 10.1516 16.8291 10.2737C16.7197 10.3958 16.5714 10.4644 16.4167 10.4644H14.6667C14.512 10.4644 14.3636 10.3958 14.2542 10.2737C14.1448 10.1516 14.0833 9.98601 14.0833 9.81333ZM14.963 4.2841C14.8822 4.19435 14.7741 4.14185 14.6601 4.13702C14.5462 4.1322 14.4348 4.1754 14.3482 4.25805L9.4715 8.91479C9.35917 9.02213 9.26817 9.15448 9.20433 9.30336C9.14049 9.45223 9.10522 9.61435 9.10077 9.77932C9.09632 9.9443 9.12279 10.1085 9.1785 10.2614C9.2342 10.4143 9.3179 10.5525 9.42424 10.6672C9.53058 10.7819 9.65721 10.8705 9.79602 10.9274C9.93483 10.9843 10.0828 11.0082 10.2303 10.9975C10.3779 10.9869 10.5218 10.942 10.6529 10.8657C10.784 10.7893 10.8994 10.6833 10.9917 10.5543L14.998 4.95865C15.0677 4.86126 15.1028 4.73861 15.0965 4.61416C15.0903 4.4897 15.0432 4.37219 14.9642 4.2841H14.963Z" fill="black"/>
<path fill-rule="evenodd" clip-rule="evenodd" d="M7.91362 18.8654C6.68362 18.6572 5.50669 18.2087 4.45002 17.5455C3.39335 16.8824 2.47765 16.0177 1.75519 15.0007C0.296108 12.9468 -0.287271 10.3974 0.133384 7.91338C0.55404 5.42935 1.94427 3.21416 3.99825 1.75513C6.05222 0.296099 8.60169 -0.287263 11.0858 0.13338C13.5701 0.554022 15.7855 1.94427 17.2446 3.9983C18.7038 6.05232 19.2873 8.60186 18.8666 11.086C18.446 13.5702 17.0557 15.7856 15.0016 17.2447C12.9475 18.7038 10.3979 19.2873 7.91362 18.8666V18.8654ZM2.37539 13.7809C4.54045 12.5282 6.99834 11.8704 9.49971 11.8743C12.0949 11.8743 14.5286 12.5688 16.624 13.7809C17.3813 12.5199 17.7903 11.0806 17.8093 9.60985C17.8283 8.13912 17.4566 6.6897 16.7322 5.40961C16.0077 4.12953 14.9565 3.06465 13.6858 2.32375C12.4152 1.58284 10.9706 1.19245 9.49971 1.19245C8.02881 1.19245 6.58426 1.58284 5.3136 2.32375C4.04294 3.06465 2.9917 4.12953 2.26724 5.40961C1.54279 6.6897 1.17108 8.13912 1.19008 9.60985C1.20908 11.0806 1.61811 12.5199 2.37539 13.7809Z" fill="black"/>
</svg>
