<svg width="22" height="23" viewBox="0 0 22 23" fill="none" xmlns="http://www.w3.org/2000/svg">
<path d="M18.6667 11.3331C18.6665 10.0817 18.3622 8.84905 17.78 7.74133L16.6172 8.90489C16.9441 9.67267 17.1121 10.4987 17.1111 11.3331H18.6667Z" fill="#72D1FF"/>
<path d="M16.6553 6.66644L15.5556 5.56666L11.8883 9.23311C11.5769 9.08127 11.2353 9.00152 10.8889 8.99978C10.4274 8.99978 9.97628 9.13662 9.59256 9.39301C9.20885 9.6494 8.90978 10.0138 8.73318 10.4402C8.55657 10.8665 8.51036 11.3357 8.6004 11.7883C8.69043 12.2409 8.91266 12.6567 9.23898 12.983C9.5653 13.3093 9.98106 13.5316 10.4337 13.6216C10.8863 13.7116 11.3555 13.6654 11.7818 13.4888C12.2082 13.3122 12.5726 13.0132 12.829 12.6294C13.0854 12.2457 13.2222 11.7946 13.2222 11.3331C13.2205 10.9867 13.1407 10.6451 12.9889 10.3337L16.6553 6.66644ZM10.8889 12.1109C10.7351 12.1109 10.5847 12.0653 10.4568 11.9798C10.3289 11.8943 10.2292 11.7729 10.1703 11.6308C10.1115 11.4886 10.0961 11.3322 10.1261 11.1814C10.1561 11.0305 10.2301 10.8919 10.3389 10.7831C10.4477 10.6744 10.5863 10.6003 10.7372 10.5703C10.888 10.5403 11.0444 10.5557 11.1865 10.6145C11.3287 10.6734 11.4501 10.7731 11.5356 10.901C11.6211 11.0289 11.6667 11.1793 11.6667 11.3331C11.6665 11.5393 11.5845 11.737 11.4386 11.8829C11.2928 12.0287 11.0951 12.1107 10.8889 12.1109Z" fill="#72D1FF"/>
<path d="M10.8889 5.11089C11.7233 5.11003 12.5493 5.27803 13.3171 5.60478L14.4807 4.44122C13.2961 3.82098 11.9714 3.51708 10.6349 3.55893C9.29841 3.60078 7.99535 3.98697 6.85187 4.68011C5.7084 5.37325 4.76324 6.34986 4.10789 7.51541C3.45254 8.68096 3.10921 9.99596 3.11112 11.3331H4.66667C4.66873 9.68351 5.32495 8.10205 6.49139 6.93561C7.65784 5.76916 9.23929 5.11294 10.8889 5.11089Z" fill="#72D1FF"/>
<path d="M10.8889 22.222C8.73528 22.222 6.63002 21.5834 4.83935 20.3869C3.04868 19.1904 1.65303 17.4898 0.828872 15.5001C0.00471803 13.5104 -0.210918 11.321 0.209232 9.20879C0.629382 7.09656 1.66645 5.15634 3.18929 3.6335C4.71213 2.11066 6.65234 1.0736 8.76458 0.653446C10.8768 0.233295 13.0662 0.448932 15.0559 1.27309C17.0456 2.09724 18.7462 3.4929 19.9427 5.28357C21.1392 7.07423 21.7778 9.17949 21.7778 11.3331C21.7745 14.22 20.6262 16.9877 18.5849 19.0291C16.5435 21.0704 13.7758 22.2187 10.8889 22.222ZM10.8889 1.99977C9.04294 1.99977 7.23843 2.54717 5.70357 3.57273C4.16871 4.59829 2.97244 6.05595 2.26602 7.7614C1.5596 9.46684 1.37477 11.3435 1.7349 13.154C2.09503 14.9644 2.98394 16.6275 4.28923 17.9328C5.59452 19.2381 7.25756 20.127 9.06805 20.4871C10.8785 20.8472 12.7552 20.6624 14.4606 19.956C16.1661 19.2496 17.6237 18.0533 18.6493 16.5184C19.6748 14.9836 20.2222 13.1791 20.2222 11.3331C20.2193 8.85864 19.2351 6.48634 17.4854 4.73663C15.7357 2.98691 13.3634 2.00266 10.8889 1.99977Z" fill="#72D1FF"/>
</svg>
