<svg width="18" height="18" viewBox="0 0 18 18" fill="none" xmlns="http://www.w3.org/2000/svg">
<path d="M15.25 9C15.2499 7.9944 15.0054 7.00389 14.5375 6.11375L13.6031 7.04875C13.8658 7.66572 14.0008 8.32947 14 9H15.25Z" fill="black"/>
<path d="M13.6338 5.25L12.75 4.36625L9.80313 7.3125C9.5529 7.19049 9.27839 7.1264 9 7.125C8.62916 7.125 8.26665 7.23497 7.95831 7.441C7.64997 7.64703 7.40964 7.93986 7.26773 8.28247C7.12581 8.62508 7.08868 9.00208 7.16103 9.3658C7.23338 9.72951 7.41195 10.0636 7.67418 10.3258C7.9364 10.5881 8.27049 10.7666 8.63421 10.839C8.99792 10.9113 9.37492 10.8742 9.71754 10.7323C10.0601 10.5904 10.353 10.35 10.559 10.0417C10.765 9.73336 10.875 9.37084 10.875 9C10.8736 8.72161 10.8095 8.44711 10.6875 8.19688L13.6338 5.25ZM9 9.625C8.87639 9.625 8.75555 9.58835 8.65277 9.51967C8.54999 9.451 8.46988 9.35338 8.42258 9.23918C8.37527 9.12498 8.3629 8.99931 8.38701 8.87807C8.41113 8.75683 8.47065 8.64547 8.55806 8.55806C8.64547 8.47065 8.75683 8.41113 8.87807 8.38701C8.99931 8.3629 9.12498 8.37527 9.23918 8.42258C9.35338 8.46988 9.451 8.54999 9.51967 8.65277C9.58835 8.75555 9.625 8.87639 9.625 9C9.62484 9.16571 9.55894 9.32459 9.44176 9.44176C9.32459 9.55894 9.16571 9.62484 9 9.625Z" fill="black"/>
<path d="M9 4C9.67053 3.99931 10.3343 4.13432 10.9513 4.39688L11.8863 3.46188C10.9343 2.96347 9.86988 2.71926 8.7959 2.75289C7.72193 2.78652 6.67483 3.09686 5.75597 3.65384C4.8371 4.21083 4.0776 4.99561 3.55098 5.93221C3.02436 6.86881 2.74847 7.92551 2.75 9H4C4.00166 7.67443 4.52897 6.40362 5.4663 5.4663C6.40362 4.52897 7.67443 4.00166 9 4Z" fill="black"/>
<path d="M9 17.75C7.26942 17.75 5.57769 17.2368 4.13876 16.2754C2.69983 15.3139 1.57832 13.9473 0.916058 12.3485C0.253791 10.7496 0.0805121 8.9903 0.418133 7.29296C0.755753 5.59563 1.58911 4.03653 2.81282 2.81282C4.03653 1.58911 5.59563 0.755753 7.29296 0.418133C8.9903 0.0805121 10.7496 0.253791 12.3485 0.916058C13.9473 1.57832 15.3139 2.69983 16.2754 4.13876C17.2368 5.57769 17.75 7.26942 17.75 9C17.7474 11.3198 16.8246 13.5439 15.1843 15.1843C13.5439 16.8246 11.3198 17.7474 9 17.75ZM9 1.5C7.51664 1.5 6.0666 1.93987 4.83323 2.76398C3.59986 3.58809 2.63856 4.75943 2.07091 6.12988C1.50325 7.50032 1.35473 9.00832 1.64411 10.4632C1.9335 11.918 2.64781 13.2544 3.6967 14.3033C4.7456 15.3522 6.08197 16.0665 7.53683 16.3559C8.99168 16.6453 10.4997 16.4968 11.8701 15.9291C13.2406 15.3614 14.4119 14.4001 15.236 13.1668C16.0601 11.9334 16.5 10.4834 16.5 9C16.4977 7.01159 15.7068 5.10528 14.3007 3.69926C12.8947 2.29324 10.9884 1.50232 9 1.5Z" fill="black"/>
</svg>
